<svg viewBox="0 0 32 32" xmlns="http://www.w3.org/2000/svg"><path d="m24.15527 8.30566-2.10156-6.30566h-12.10742l-2.10156 6.30566a9.21735 9.21735 0 0 0 .5332 7.07911 8.32593 8.32593 0 0 0 4.94629 4.21093 8.93682 8.93682 0 0 0 1.67578.32953v8.07477h-4v2h10v-2h-4v-8.07477a8.93682 8.93682 0 0 0 1.67578-.32953 8.32593 8.32593 0 0 0 4.94629-4.21093 9.21735 9.21735 0 0 0 .5332-7.07911zm-12.76757-4.30566h9.2246l1.64649 4.93848a7.10607 7.10607 0 0 1 .25568 1.06152h-13.02887a7.10461 7.10461 0 0 1 .25561-1.06152zm10.4541 10.47168a6.33812 6.33812 0 0 1 -3.7598 3.21387 7.07087 7.07087 0 0 1 -4.16406 0 6.33812 6.33812 0 0 1 -3.75977-3.21387 7.12036 7.12036 0 0 1 -.73098-2.47168h13.14562a7.12036 7.12036 0 0 1 -.73101 2.47168z"/></svg>