<svg viewBox="0 0 32 32" xmlns="http://www.w3.org/2000/svg"><path d="m17 18.001h-2v2h-2v2h2v2h2v-2h2v-2h-2z"/><path d="m23.47076 14.00049.85444-2.19531a4.94969 4.94969 0 0 0 3.00488-2.30469 5 5 0 0 0 -8.66016-5 4.94576 4.94576 0 0 0 -.49316 3.75439l-1.72113 2.14453a8.90435 8.90435 0 0 0 -1.92-2.93408 9.296 9.296 0 0 0 -8.7202-2.38672l-.59375.14356-.14356.59375a9.31786 9.31786 0 0 0 1.91822 8.18457h-4.99634v1a13.965 13.965 0 0 0 8 12.6499v2.35061h12v-2.35061a13.965 13.965 0 0 0 8-12.6499v-1zm-3.03326-5.36768-.21191-.53955a2.99889 2.99889 0 1 1 3.21484 1.85742l-.57324.08594-1.542 3.96387h-5.19482zm-11.55908 4.48926a7.25937 7.25937 0 0 1 -1.97754-6.2207 7.26018 7.26018 0 0 1 6.2207 1.978 7.02075 7.02075 0 0 1 1.8429 3.37806l-1.39893 1.743h-3.58655a6.81854 6.81854 0 0 1 -1.10058-.87836zm11.73681 12.956-.61523.25693v1.666h-8v-1.666l-.61523-.25684a11.97042 11.97042 0 0 1 -7.34377-10.07767h23.918a11.96955 11.96955 0 0 1 -7.34377 10.07763z"/></svg>