<svg viewBox="0 0 32 32" xmlns="http://www.w3.org/2000/svg"><path d="m21.999 15.42773a1 1 0 0 1 -.78125-1.62353l7.09571-8.895a1.00034 1.00034 0 0 1 1.56445 1.24707l-7.0957 8.895a1.00069 1.00069 0 0 1 -.78321.37646z"/><path d="m18 30a.99943.99943 0 0 1 -1-1v-16a1.00049 1.00049 0 0 1 .21875-.62451l8-10a1.00018 1.00018 0 0 1 1.5625 1.249l-7.78125 9.7261v15.64941a.99943.99943 0 0 1 -1 1z"/><path d="m10.00049 15.42773a.99808.99808 0 0 1 -.78223-.37646l-7.0957-8.895a1 1 0 0 1 1.56344-1.24709l7.0957 8.895a1 1 0 0 1 -.78125 1.62353z"/><path d="m14 30a.99974.99974 0 0 1 -1-1v-15.64941l-7.78076-9.72608a.9998.9998 0 0 1 1.56152-1.249l8 10a.99807.99807 0 0 1 .21924.62449v16a.99974.99974 0 0 1 -1 1z"/></svg>