<svg xmlns="http://www.w3.org/2000/svg" viewBox="0 0 32 32"><title>apple</title><g id="Layer_2" data-name="Layer 2"><path d="M22,5a7.91611,7.91611,0,0,0-5.12158,1.86761c.17877-4.14855,3.18036-4.85748,3.32568-4.88909L20,1,19.80371.01953c-.05267.01038-4.62445,1.00824-4.91388,6.65558A7.923,7.923,0,0,0,10,5a8.00917,8.00917,0,0,0-8,8c0,3.28125,1.68262,7.4375,2.7959,10.18848l.27539.68261C5.98828,26.16309,7.52246,30,11.5,30A6.50061,6.50061,0,0,0,16,28.18457,6.50061,6.50061,0,0,0,20.5,30c3.97754,0,5.51172-3.83691,6.42871-6.12891l.27539-.68261C28.31738,20.4375,30,16.28125,30,13A8.00917,8.00917,0,0,0,22,5Zm3.34961,17.43848-.27832.69043C23.83789,26.21387,22.69434,28,20.5,28a4.50527,4.50527,0,0,1-3.68164-1.91895L16,24.917l-.81836,1.16406A4.50527,4.50527,0,0,1,11.5,28c-2.19434,0-3.33789-1.78613-4.57129-4.87109l-.27832-.69043C5.65918,19.98926,4,15.8916,4,13A5.99473,5.99473,0,0,1,15.14258,9.92285L16,11.35156l.85742-1.42871A5.99473,5.99473,0,0,1,28,13C28,15.8916,26.34082,19.98926,25.34961,22.43848Z"/><rect x="18" y="15" width="2" height="4"/><rect x="12" y="15" width="2" height="4"/></g></svg>