<svg viewBox="0 0 32 32" xmlns="http://www.w3.org/2000/svg"><path d="m23.69135 16.64789 2.044-1.4848-1.02735-3.16309 1.02734-3.16309-2.69134-1.95507-1.0274-3.16309h-3.32519l-2.69141-1.95508-2.69141 1.95508h-3.32519l-1.02735 3.16309-2.6914 1.95507 1.02735 3.16309-1.02735 3.16309 2.01593 1.46441-4.05206 9.13227 5.55468-.15137 3.47364 4.376 4.0841-8.72211 1.35047-.981h3.32519l.47724-1.46942 2.30987 4.95184-3.35351-.09179-2.08594 2.62988-1.0708-2.28546-1.10169 2.36266 1.73108 3.69617 3.47266-4.376 5.58789.15234zm-10.87592 9.56305-2.08691-2.62989-3.38672.09278 2.16137-4.8711.48023 1.47852h3.32519l1.70429 1.238zm7.748-7.92969h-2.52243l-2.041 1.48242-2.041-1.48242h-2.52248l-.77929-2.39941-2.041-1.48243.77928-2.39941-.7793-2.39941 2.041-1.48243.77929-2.39941h2.5225l2.041-1.48242 2.041 1.48242h2.52246l.77929 2.39941 2.041 1.48243-.77926 2.39941.7793 2.39941-2.041 1.48243z"/></svg>