<svg viewBox="0 0 32 32" xmlns="http://www.w3.org/2000/svg"><path d="m23.502 13.13525a.99951.99951 0 0 0 -.998-.00341l-12.504 7.14453v-4.55323l1.50391.85938a.99991.99991 0 0 0 .99218-1.73633l-3-1.71435a1 1 0 0 0 -1.49609.86816v9a8 8 0 0 0 16 0v-9a.99889.99889 0 0 0 -.498-.86475zm-7.502 15.86475a6.00657 6.00657 0 0 1 -6-6v-.41992l12-6.85694v3.68842l-6.49707 3.72028a1.00039 1.00039 0 0 0 .99414 1.73632l5.50293-3.151v1.28284a6.00657 6.00657 0 0 1 -6 6z"/><path d="m10.625 10.65674a5.99236 5.99236 0 0 0 10.75 0 2.98427 2.98427 0 0 0 0-5.31348 5.99236 5.99236 0 0 0 -10.75 0 2.98427 2.98427 0 0 0 0 5.31348zm1.06445-3.59766.4375-.14453.17481-.42627a3.98646 3.98646 0 0 1 1.79431-1.996c.20612.59311.85559 1.50772 2.90393 1.50772v-1.86426a3.97869 3.97869 0 0 1 2.69824 2.35254l.17481.42627.4375.14453a.98678.98678 0 0 1 0 1.88184l-.4375.14453-.17481.42627a3.99242 3.99242 0 0 1 -7.39648 0l-.17476-.42627-.4375-.14453a.98678.98678 0 0 1 0-1.88184z"/></svg>