<svg id="Layer_1" data-name="Layer 1" xmlns="http://www.w3.org/2000/svg" viewBox="0 0 32 32"><path d="M26,8a5,5,0,1,0,5,5A5.00588,5.00588,0,0,0,26,8Zm0,8a3,3,0,1,1,3-3A3.00328,3.00328,0,0,1,26,16Z"/><path d="M20.2738,24.06177l1.09241-1.89185-1.73242-1-1.09223,1.89142a2.99692,2.99692,0,0,0-2.47991.66461l-1.89173-1.09216-1,1.73242,1.89173,1.09216a2.99679,2.99679,0,0,0,.66461,2.4798l-1.09247,1.89191,1.73242,1,1.097-1.89972a2.71846,2.71846,0,0,0,2.46716-.66113l1.89972,1.097,1-1.73242-1.89173-1.09235A2.99646,2.99646,0,0,0,20.2738,24.06177ZM18.86621,26.5A1.00016,1.00016,0,1,1,18.002,25a.99094.99094,0,0,1,.498.13379A1.00159,1.00159,0,0,1,18.86621,26.5Z"/><path d="M11.58215,14.3891l1.62683.87067.94336-1.76368-1.75561-.93957a10.73287,10.73287,0,0,1,1.59436-2.15137L15.293,11.707,16.707,10.293,15.32,8.90588A4.12877,4.12877,0,0,0,15.93848,6.918a3.79484,3.79484,0,0,0-1.11036-2.86768,4.06309,4.06309,0,0,0-4.37976-.90716L8.72559,1.35791,7.28613,2.74658l1.537,1.59265A18.92905,18.92905,0,0,0,6.78271,6.65344L5.05518,5.502,3.9458,7.166,5.67346,8.31757A19.0685,19.0685,0,0,0,4.258,11.28467L2.54053,10.5459l-.79,1.83691,1.89563.81543A18.93776,18.93776,0,0,0,3.10736,16H1v2H3a3.99158,3.99158,0,0,0,7.858,1H13V17H11.05029A11.1518,11.1518,0,0,1,11.58215,14.3891ZM7,20a2.00229,2.00229,0,0,1-2-2A17.07605,17.07605,0,0,1,10.55371,5.4292a2.05215,2.05215,0,0,1,2.86035.03516,1.81677,1.81677,0,0,1,.52588,1.375A2.18256,2.18256,0,0,1,13.34082,8.248,12.75632,12.75632,0,0,0,9,18,2.00229,2.00229,0,0,1,7,20Z"/><circle cx="26" cy="13" r="1"/><circle cx="28" cy="24" r="1"/><circle cx="17" cy="17" r="1"/><circle cx="5" cy="26" r="1"/><circle cx="25" cy="3" r="1"/></svg>