<svg id="Layer_1" data-name="Layer 1" xmlns="http://www.w3.org/2000/svg" viewBox="0 0 32 32"><title>bell-off</title><path d="M16,31a3.9965,3.9965,0,0,1-3.75586-2.64844l1.88477-.67187a1.986,1.986,0,0,0,3.74218,0l1.88477.67187A3.9965,3.9965,0,0,1,16,31Z"/><path d="M28.707,27.293l-24-24L3.293,4.707,7.83063,9.24469A8.9029,8.9029,0,0,0,7,13v1c0,2.35059,0,6.72559-1.89648,10.55664A1.00017,1.00017,0,0,0,6,26H24.58594l2.707,2.707ZM7.52832,24A27.57959,27.57959,0,0,0,9,14V13a6.90817,6.90817,0,0,1,.36719-2.21875L22.58594,24Z"/><path d="M16,6a7.00818,7.00818,0,0,1,7,7v1a38.57708,38.57708,0,0,0,.26624,5.03021L25.783,21.547A29.02772,29.02772,0,0,1,25,14V13a9.01045,9.01045,0,0,0-8-8.941V2H15V4.059A8.95774,8.95774,0,0,0,10.29407,6.058l1.41986,1.41987A6.95741,6.95741,0,0,1,16,6Z"/></svg>