<svg viewBox="0 0 24 24" xmlns="http://www.w3.org/2000/svg"><path d="m12 23a3.22605 3.22605 0 0 1 -3.03516-2.1416l1.88477-.66992a1.22114 1.22114 0 0 0 2.30078 0l1.88477.66992a3.22605 3.22605 0 0 1 -3.03516 2.1416z"/><path d="m20.23242 17.2334c-.83984-.7041-1.57715-4.69336-1.57715-6.731v-1.6684a6.47789 6.47789 0 0 0 -5.65527-6.49721v-1.33679h-2v1.29535a6.49529 6.49529 0 0 0 -5.95215 6.53865v1.66846c0 2.67041-.54785 6.1167-1.28027 6.731a1.00037 1.00037 0 0 0 .64258 1.76654h15.17968a1.00037 1.00037 0 0 0 .64258-1.7666zm-14.10058-.2334a23.257 23.257 0 0 0 .916-6.49756v-1.66844a4.54655 4.54655 0 0 1 4.80371-4.59033 4.54655 4.54655 0 0 1 4.80372 4.59033v1.66846a21.23766 21.23766 0 0 0 1.167 6.49754z"/></svg>