<svg id="Layer_1" data-name="Layer 1" xmlns="http://www.w3.org/2000/svg" viewBox="0 0 32 32"><title>bell</title><path d="M16,31a3.9965,3.9965,0,0,1-3.75586-2.64844l1.88477-.67187a1.986,1.986,0,0,0,3.74218,0l1.88477.67187A3.9965,3.9965,0,0,1,16,31Z"/><path d="M26.89648,24.55664C25,20.72559,25,16.35059,25,14V13a9.01045,9.01045,0,0,0-8-8.941V2H15V4.059A9.01045,9.01045,0,0,0,7,13v1c0,2.35059,0,6.72559-1.89648,10.55664A1.00017,1.00017,0,0,0,6,26H26a1.00017,1.00017,0,0,0,.89648-1.44336ZM7.52832,24A27.57959,27.57959,0,0,0,9,14V13a7,7,0,0,1,14,0v1a27.57959,27.57959,0,0,0,1.47168,10Z"/></svg>