<svg viewBox="0 0 24 24" xmlns="http://www.w3.org/2000/svg"><path d="m12 23a3.22605 3.22605 0 0 1 -3.03516-2.1416l1.88477-.66992a1.22114 1.22114 0 0 0 2.30078 0l1.88477.66992a3.22605 3.22605 0 0 1 -3.03516 2.1416z"/><path d="m22.207 20.793-2.00784-2.0079.00018-.00007-2.68964-2.68963.00013.00036-9.749-9.749.00006-.00018-1.44076-1.44076-.00013.00012-2.613-2.61294-1.414 1.414 3.07309 3.07315a6.75077 6.75077 0 0 0 -.31824 2.05385v1.66846c0 2.67041-.54785 6.1167-1.28027 6.731a1.00037 1.00037 0 0 0 .64258 1.76654h13.17578l3.207 3.207zm-16.07516-3.793a23.257 23.257 0 0 0 .916-6.49756v-1.66844c0-.11914.01611-.23181.02442-.34765l8.51368 8.51365z"/><path d="m11.85156 4.24365a4.54655 4.54655 0 0 1 4.80371 4.59035v1.66846a18.87 18.87 0 0 0 .14844 2.05884l2.48706 2.48706a20.84408 20.84408 0 0 1 -.6355-4.5459v-1.66846a6.47789 6.47789 0 0 0 -5.65527-6.49721v-1.33679h-2v1.29535a6.90476 6.90476 0 0 0 -3.24579 1.21643l1.44025 1.44022a5.12446 5.12446 0 0 1 2.6571-.70835z"/></svg>