<svg viewBox="0 0 32 32" xmlns="http://www.w3.org/2000/svg"><path d="m29.93 19.63-1.93-4.82v-.81a13 13 0 0 0 -26 0c0 3.74 1 6.43 3.29 8.71l1 1 1.42-1.42-1-1c-1.9-1.89-2.71-4.08-2.71-7.29a11 11 0 0 1 22 0v1a.94.94 0 0 0 .07.37l1.45 3.63h-2.52v7a1 1 0 0 1 -1 1h-2v2h2a3 3 0 0 0 3-3v-5h2a1 1 0 0 0 .93-1.37z"/><path d="m12 22a3 3 0 0 0 -1.19-2.39 6.92 6.92 0 0 1 -2.81-5.61 7 7 0 0 1 6-6.93v3.93h2v-6h-1a9 9 0 0 0 -5.39 16.21 1 1 0 0 1 .39.79v3h-2v3a3 3 0 0 0 6 0v-3h-2zm0 6a1 1 0 0 1 -2 0v-1h2z"/><path d="m24 12a3 3 0 0 0 -3-3 3 3 0 0 0 -3-3v2a1 1 0 0 1 1 1 2 2 0 0 0 2 2 1 1 0 0 1 0 2 2 2 0 0 0 -2 2 1 1 0 0 1 -2 0 2 2 0 0 0 -4 0 1 1 0 0 1 -1 1v2a3 3 0 0 0 3-3 3 3 0 0 0 6 0 3 3 0 0 0 3-3z"/></svg>