<svg id="Layer_1" data-name="Layer 1" xmlns="http://www.w3.org/2000/svg" viewBox="0 0 32 32"><title>bug</title><path d="M24.04028,17.23706V14.20679h2.324l3.26172-3.2627L28.21191,9.53l-2.67578,2.67676H24.04028V10.47485H22.01471A5.96731,5.96731,0,0,0,20.71112,7.2182l2.804-2.804L22.101,3,19.21033,5.89062a6.08784,6.08784,0,0,0-6.34027-.00018L9.97961,3,8.56543,4.41418,11.36914,7.2179a5.96737,5.96737,0,0,0-1.30377,3.25695H8.04028v1.73194H6.46387L3.78809,9.53,2.374,10.94409l3.26172,3.2627H8.04028v3.03027H5.63574L2.374,20.49976l1.41407,1.41406,2.67578-2.67676H8.04028v1.23779a7.98679,7.98679,0,0,0,.28913,2.10468L6,24.90894v4.61425L8,30V25.73706l1.17328-1.17328a7.984,7.984,0,0,0,13.736-.00336l1.17664,1.17664V30h2V24.90894l-2.33368-2.33368a7.98646,7.98646,0,0,0,.288-2.10041V19.23706h1.49585l2.67578,2.67676L29.626,20.49976l-3.26172-3.2627ZM16.04,7a3.97,3.97,0,0,1,3.9494,3.47485h-7.8988A3.97,3.97,0,0,1,16.04,7ZM10.04028,20.47485v-8h5V26.38452A6.00474,6.00474,0,0,1,10.04028,20.47485Zm12,0a6.00473,6.00473,0,0,1-5,5.90967V12.47485h5Z"/></svg>