<svg viewBox="0 0 32 32" xmlns="http://www.w3.org/2000/svg"><path d="m24.834 13.32031.30957-.64746c.668-1.36133-.12793-8.29785-2.11425-10.07031a10.5277 10.5277 0 0 0 -7.02932-2.60254 10.52 10.52 0 0 0 -7.47363 3.02539c-1.625 1.64844-2.37207 8.21582-1.66992 9.64746l4.23855 6.46381-4.41336 7.08893 6.27246 5.02441 3.0579-4.615 3.196 4.87378 6.10254-5.3252-4.45313-6.86328zm-1.49609-1.50586-.21387.46485-3.4541 5.21191-2.53119-3.90045 5.33476-8.07086c.72784 2.07293 1.1142 5.51532.86438 6.29455zm-9.39565-3.14935a9.15942 9.15942 0 0 1 4.06374-.01349l-2.055 3.109zm2.05774-6.6651a8.59249 8.59249 0 0 1 5.25452 1.73718l-2.08484 3.15406a11.13866 11.13866 0 0 0 -6.37287.00876l-2.0556-3.1676a8.67107 8.67107 0 0 1 5.25879-1.7324zm-3.50488 26.32031-3.17676-2.5459 2.98486-4.79528 2.51483 3.83508zm10.19433-2.5039-3.06545 2.6748-10.72849-16.38769-.25-.34473a17.5176 17.5176 0 0 1 .78711-6.36914z"/></svg>