<svg viewBox="0 0 32 32" xmlns="http://www.w3.org/2000/svg"><path d="m16 15.99951a7 7 0 1 1 7-7 7.00817 7.00817 0 0 1 -7 7zm0-12a5 5 0 1 0 5 5 5.00589 5.00589 0 0 0 -5-5z"/><path d="m18.02234 24.50427a3.02624 3.02624 0 0 0 .35705-.25708c.04334-.03808.07673-.085.11762-.1253a2.98858 2.98858 0 0 0 .2857-.30933c.01758-.02319.0293-.0506.04621-.07434a3.00557 3.00557 0 0 0 .4104-2.68457v-.00012a2.87518 2.87518 0 0 0 -.57031-.99939c-.01239-.01459-.02118-.03253-.03382-.04682a3.00807 3.00807 0 0 0 -3.74359-.60595l-1.0366.59863h.00141l-5.4277 3.13379 1 1.73242 6.46387-3.73242a.99989.99989 0 0 1 1.46582 1.125.98978.98978 0 0 1 -.46582.60644l-10.39356 6a.99769.99769 0 0 1 -1.36523-.36623.97959.97959 0 0 1 -.13279-.4531l.40039-3.59863a4.97885 4.97885 0 0 1 4.35522-4.39008l3.56266-2.05719h-2.94915a6.99138 6.99138 0 0 0 -6.957 6.22656l-.40723 3.66309-.00589.11035a2.99809 2.99809 0 0 0 4.5 2.59766l10.3916-6c.04706-.0271.08551-.06403.13074-.09339z"/><path d="m27.98077 22.06689-1.43054 2.14563c.0127.07966.03943.15381.0484.23475l.40037 3.59863a.97306.97306 0 0 1 -.13379.4541.99057.99057 0 0 1 -.60644.46582 1.00235 1.00235 0 0 1 -.75877-.10059l-5.65826-3.26641a4.914 4.914 0 0 1 -.94916.73126l-.89246.51532 6.4989 3.75226a3.00108 3.00108 0 0 0 4.50098-2.59766l-.41309-3.77344a6.98662 6.98662 0 0 0 -.60614-2.15967z"/><path d="m28.683 11h-1.56-.799l-4.375 7h3.937l-3.334 5h2.403l4.667-7h-4.064z"/></svg>