<svg xmlns="http://www.w3.org/2000/svg" viewBox="0 0 32 32"><g id="Layer_4" data-name="Layer 4"><path d="M25,0H16C11.81348,0,9,2.41113,9,6a.9989.9989,0,0,0,.68359.94824L12,7.7207v2.70313A5.00324,5.00324,0,0,0,9,15V32H23V15a5.00324,5.00324,0,0,0-3-4.57617V9a2.98238,2.98238,0,0,1,1.11652-2.31592,7.90981,7.90981,0,0,0,3.2702,5.106L25.61328,10.21A5.8335,5.8335,0,0,1,23.048,6H25a.99943.99943,0,0,0,1-1V1A.99974.99974,0,0,0,25,0ZM21,15V30H11V18h8V16H11V15a3.00328,3.00328,0,0,1,3-3h4A3.00328,3.00328,0,0,1,21,15ZM24,4H23a5.00588,5.00588,0,0,0-5,5v1H14V7a.9989.9989,0,0,0-.68359-.94824l-2.26368-.75488C11.43262,2.88184,13.78613,2,16,2h8Z"/></g></svg>