<svg viewBox="0 0 32 32" xmlns="http://www.w3.org/2000/svg"><path d="m26.51 14.91a8.87 8.87 0 0 0 -1.75-4.74 3 3 0 0 0 -4.88-3.29 2.89 2.89 0 0 0 -.7 1.12s0 0 0 0a2.39 2.39 0 0 0 -.12.46.45.45 0 0 0 0 .11 3 3 0 0 0 4.32 3.05 6.94 6.94 0 0 1 1.17 3.88v.91l.78.18a3.64 3.64 0 0 1 2.67 3.69 4 4 0 0 1 -.69 2.24 4.85 4.85 0 0 1 .69 2.24 5.88 5.88 0 0 0 2-4.48 5.73 5.73 0 0 0 -3.49-5.37zm-3.8-5.2a1 1 0 1 1 0-1.42 1 1 0 0 1 0 1.42z"/><path d="m25.93 24.37a3 3 0 0 0 -5.75-.37h-8.79l1.33-4h2.46a3 3 0 1 0 0-2h-3.9l-2 6h-1.95a3.55 3.55 0 0 1 -3.33-3.72 3.56 3.56 0 0 1 3.28-3.72h1l.15-.83a3.46 3.46 0 0 1 3.27-3 3 3 0 0 1 .66.07l.75.17.36-.69a6.08 6.08 0 0 1 3.53-3.04 4.81 4.81 0 0 1 .34-2.12 7.9 7.9 0 0 0 -5.34 3.67 5.38 5.38 0 0 0 -5.37 3.81 5.62 5.62 0 0 0 -4.63 5.68 5.54 5.54 0 0 0 5.33 5.72h12.85a3 3 0 0 0 5.82-.53 2.42 2.42 0 0 0 0-.47 3.2 3.2 0 0 0 -.07-.63zm-7.93-6.37a1 1 0 1 1 -1 1 1 1 0 0 1 1-1zm5 8a1 1 0 1 1 1-1 1 1 0 0 1 -1 1z"/></svg>