<svg viewBox="0 0 32 32" xmlns="http://www.w3.org/2000/svg"><path d="m20.707 18.293-4.707-4.707-4.707 4.707 1.414 1.414 2.293-2.293v11.586h2v-11.586l2.293 2.293z"/><path d="m24.667 23.5h-2.667v-2h2.667a3.548 3.548 0 0 0 3.333-3.72266 3.64874 3.64874 0 0 0 -2.68555-3.65034l-.78515-.17285.0039-.91357c0-3.59966-2.66211-6.54058-5.93359-6.54058a5.87881 5.87881 0 0 0 -5.16309 3.33252l-.35351.689-.75586-.16992a3.01317 3.01317 0 0 0 -.66016-.07373 3.45673 3.45673 0 0 0 -3.26367 2.96875l-.15332.83248-.9707-.02295a3.55473 3.55473 0 0 0 -3.2793 3.72119 3.548 3.548 0 0 0 3.333 3.72266h2.667v2h-2.667a5.5447 5.5447 0 0 1 -5.333-5.72266 5.60994 5.60994 0 0 1 4.63477-5.67285 5.36469 5.36469 0 0 1 5.3789-3.81449 7.79844 7.79844 0 0 1 6.58594-3.79 8.21667 8.21667 0 0 1 7.91113 7.9082 5.74149 5.74149 0 0 1 3.48926 5.36914 5.5447 5.5447 0 0 1 -5.333 5.72266z"/></svg>