<svg viewBox="0 0 24 24" xmlns="http://www.w3.org/2000/svg"><path d="m16.296 14.32-4.296-4.296-4.296 4.296 1.414 1.414 1.882-1.881v8.147h2v-8.147l1.882 1.881z"/><path d="m23 13.667a4.3498 4.3498 0 0 0 -2.70312-4.01562 6.332 6.332 0 0 0 -11.46094-2.98146 4.37975 4.37975 0 0 0 -4.19141 2.71778 4.33373 4.33373 0 0 0 .68847 8.6123h.667v-2h-.667a2.33335 2.33335 0 0 1 -.05567-4.666l.94141.00586.16113-.80273a2.33527 2.33527 0 0 1 2.7588-1.82229l.71973.15137.3584-.6416a4.3323 4.3323 0 0 1 8.1172 2.07227l-.0039.92187.80176.16211a2.333 2.333 0 0 1 -.46486 4.61914h-.667v2h1v-.03369a4.324 4.324 0 0 0 4-4.29931z"/></svg>