<svg xmlns="http://www.w3.org/2000/svg" viewBox="0 0 32 32"><title>cloud</title><path d="M24.6665,26H7.3335A5.54478,5.54478,0,0,1,2,20.27734a5.61112,5.61112,0,0,1,4.63477-5.67285A5.38274,5.38274,0,0,1,12.01367,10.79,7.80048,7.80048,0,0,1,18.6001,7a8.21659,8.21659,0,0,1,7.91064,7.9082A5.74126,5.74126,0,0,1,30,20.27734,5.54478,5.54478,0,0,1,24.6665,26ZM7.2793,16.55615A3.55539,3.55539,0,0,0,4,20.27734,3.54838,3.54838,0,0,0,7.3335,24h17.333A3.54838,3.54838,0,0,0,28,20.27734,3.649,3.649,0,0,0,25.314,16.627l-.79736-.17529.0166-.91211C24.5332,11.94092,21.87158,9,18.6001,9a5.88007,5.88007,0,0,0-5.16358,3.33252l-.35351.689-.75586-.16992a3.01757,3.01757,0,0,0-.66065-.07373,3.457,3.457,0,0,0-3.26318,2.96875l-.15332.832Z"/></svg>