<svg viewBox="0 0 32 32" xmlns="http://www.w3.org/2000/svg"><path d="m5.15 16.26a6.67 6.67 0 0 1 1.85-.26h.24a9 9 0 0 1 4.3-5.79 5 5 0 1 0 -.54-2.21v.19a11 11 0 0 0 -5.85 8.07zm10.85-11.26a3 3 0 1 1 -3 3 3 3 0 0 1 3-3z"/><path d="m18.94 26.49a9.08 9.08 0 0 1 -2.94.51 8.89 8.89 0 0 1 -4.77-1.37 4.91 4.91 0 0 0 .77-2.63 5 5 0 0 0 -7-4.59 6.23 6.23 0 0 0 -.72.39l-.28.2c-.15.11-.29.23-.43.35s-.15.15-.22.22a4.89 4.89 0 0 0 -.46.56l-.08.1a5.46 5.46 0 0 0 -.41.75c0 .08-.06.16-.1.25a6.17 6.17 0 0 0 -.19.61l-.06.26a5.5 5.5 0 0 0 -.05.9 5 5 0 0 0 7.84 4.11 10.94 10.94 0 0 0 6.16 1.89 10.82 10.82 0 0 0 4.26-.87 6.75 6.75 0 0 1 -1.32-1.64zm-11.94-.49a3 3 0 1 1 3-3 3 3 0 0 1 -3 3z"/><path d="m27 18.41c0-.14 0-.27 0-.41a11.07 11.07 0 0 0 -4.14-8.59 7.21 7.21 0 0 1 -.74 2 8.94 8.94 0 0 1 2.88 6.59 5 5 0 0 0 -5 5 4.93 4.93 0 0 0 .09.87 3 3 0 0 0 .07.32 3.68 3.68 0 0 0 .15.47 4.79 4.79 0 0 0 .46 1 5 5 0 0 0 1.39 1.48l.28.16a2.77 2.77 0 0 0 .48.26l.33.14.55.17.3.07a5.28 5.28 0 0 0 .9.06 5 5 0 0 0 2-9.59zm-2 7.59a3 3 0 1 1 3-3 3 3 0 0 1 -3 3z"/></svg>