<svg viewBox="0 0 32 32" xmlns="http://www.w3.org/2000/svg"><path d="m29.11 11.11a3 3 0 0 0 .89-2.21 3 3 0 0 0 -3.1-2.9 3.14 3.14 0 0 0 -.92.19 14 14 0 0 0 -14.87-3.31 3 3 0 0 0 -5.11 2.22 3.14 3.14 0 0 0 .19.9 14 14 0 0 0 17.2 21.87 14.12 14.12 0 0 0 1.81-1.34 13.9 13.9 0 0 0 3.91-15.42zm-2.11-3.11a1 1 0 1 1 -1 1 1 1 0 0 1 1-1zm-11-4a12.27 12.27 0 0 1 2.75.31 12 12 0 0 1 5.15 2.63 12.84 12.84 0 0 0 -2.12.22 21.82 21.82 0 0 0 -4 1.22 20.87 20.87 0 0 0 -3-2.85 12 12 0 0 0 -1.78-1.14 11.73 11.73 0 0 1 3-.39zm5.23 13.21a32.73 32.73 0 0 1 -3.1 2.19c-.55.34-1.09.65-1.62.94a3 3 0 0 0 -2.61-1.34 2.67 2.67 0 0 0 -.64.1c-.22-.33-.44-.64-.66-1a31.12 31.12 0 0 1 -1.8-3.33 32.44 32.44 0 0 1 3.09-2.18 31.12 31.12 0 0 1 3.33-1.8 32.44 32.44 0 0 1 2.18 3.09 34.89 34.89 0 0 1 1.81 3.33zm-6.23 4.79a1 1 0 1 1 -1-1 1 1 0 0 1 1 1zm-3.19-15.95a10.14 10.14 0 0 1 1.74 1.07 18.49 18.49 0 0 1 2.31 2.11c-1 .49-2 1-3 1.67s-1.95 1.29-2.84 2a19 19 0 0 1 -.86-3 10.39 10.39 0 0 1 -.22-1.9h.16a3 3 0 0 0 2.71-1.95zm-2.81-2.05a1 1 0 1 1 -1 1 1 1 0 0 1 1-1zm-4.61 15a11.93 11.93 0 0 1 -.08-5.76 12.06 12.06 0 0 1 2.63-5.11 11.74 11.74 0 0 0 .22 2.11 21.82 21.82 0 0 0 1.22 4 20.87 20.87 0 0 0 -2.85 3 12 12 0 0 0 -1.14 1.76zm1.42 3.3c-.45-.72.05-2.21 1.31-3.88a19.22 19.22 0 0 1 2.11-2.31c.49 1 1 2 1.67 3 .22.35.46.7.7 1a3 3 0 0 0 -.6 1.99 2.65 2.65 0 0 0 .07.48c-2.79.76-4.75.58-5.26-.25zm2.33 2.72a15.13 15.13 0 0 0 4-.72 3 3 0 0 0 2 .67 3.11 3.11 0 0 0 1.18-.29 15.76 15.76 0 0 0 3.68 2.93 12 12 0 0 1 -10.86-2.56zm14.19 1.14c-.93.58-3.14-.38-5.65-2.87a3.06 3.06 0 0 0 .29-1c.74-.39 1.48-.79 2.2-1.23 1-.61 1.93-1.28 2.84-2 1.4 3.8 1.32 6.52.32 7.13zm.43-10.33c-.5-1-1.06-2-1.66-3s-1.29-1.95-2-2.84a19 19 0 0 1 3-.86 10.3 10.3 0 0 1 1.9-.2v.17a3 3 0 0 0 2 2.71 14.3 14.3 0 0 1 -3.24 4.05zm2.3 8a18 18 0 0 0 -1.45-6.07 18.06 18.06 0 0 0 4-4.84 11.94 11.94 0 0 1 -2.55 10.94z"/></svg>