<svg id="outline" xmlns="http://www.w3.org/2000/svg" viewBox="0 0 32 32"><circle cx="21" cy="25" r="1"/><circle cx="25" cy="27" r="1"/><circle cx="25" cy="23" r="1"/><circle cx="29" cy="21" r="1"/><circle cx="29" cy="25" r="1"/><circle cx="29" cy="29" r="1"/><path d="M20.92877,20.62891l-1.92871-4.82129V15A12.98542,12.98542,0,0,0,2,2.63617V4.764A10.97645,10.97645,0,0,1,17.00006,15v1a1.00768,1.00768,0,0,0,.07129.37158L18.5235,20H16.00006v7a1.00067,1.00067,0,0,1-1,1h-2v2h2a3.00328,3.00328,0,0,0,3-3V22h2a1.00011,1.00011,0,0,0,.92871-1.37109Z"/></svg>