<svg id="outline" xmlns="http://www.w3.org/2000/svg" viewBox="0 0 32 32"><path d="M7.11719,30h9.76562l1.25-10H5.86719Zm8.75-8-.75,6H8.88281l-.75-6Z"/><path d="M24.39941,9.8667,22,6.66687V2H14V6.66687L11.60059,9.8667A3.01476,3.01476,0,0,0,11,11.6665V18h2V16h8V14H13V11.6665a1.008,1.008,0,0,1,.2002-.59961L15.49994,8h5.00012l2.29974,3.06689A1.008,1.008,0,0,1,23,11.6665V27a1.00067,1.00067,0,0,1-1,1H19.14844l-.25,2H22a3.00328,3.00328,0,0,0,3-3V11.6665A3.01476,3.01476,0,0,0,24.39941,9.8667ZM20,6H16V4h4Z"/></svg>