<svg id="Layer_1" data-name="Layer 1" xmlns="http://www.w3.org/2000/svg" viewBox="0 0 32 32"><path d="M30,30H28V26.7998A3.86019,3.86019,0,0,0,24.09082,23H15.90918A3.86019,3.86019,0,0,0,12,26.7998V30H10V26.7998A5.86145,5.86145,0,0,1,15.90918,21h8.18164A5.86145,5.86145,0,0,1,30,26.7998Z"/><path d="M20,19a6,6,0,1,1,6-6A6.00657,6.00657,0,0,1,20,19ZM20,9a4,4,0,1,0,4,4A4.00427,4.00427,0,0,0,20,9Z"/><path d="M5.86035,7.65015C6.53357,7.25171,7.21094,6.88806,7.86261,6.55A13.15709,13.15709,0,0,1,5.66571,5h8.6629a13.20451,13.20451,0,0,1-2.20038,1.55c-.67364.39331-1.39459.77246-2.13348,1.15216q-.22485.11555-.4508.23138c-.56318.28846-1.13758.58454-1.70661.89289-.67871.36779-1.34643.75628-1.97705,1.17645C3.70032,11.44214,2,13.26239,2,15.99316c0,2.73413,1.70453,4.5553,3.86865,5.99537.67346-.39826,1.3512-.762,2.00275-1.09992A11.78327,11.78327,0,0,1,5.33569,19h9.39057a8.094,8.094,0,0,1-1.64136-2H4.1452a3.5652,3.5652,0,0,1-.00415-2h8.12378A7.91652,7.91652,0,0,1,12,13H5.32245a11.71357,11.71357,0,0,1,2.54016-1.897c.6731-.3935,1.39368-.77271,2.13226-1.15241q.23007-.11819.46118-.23669c.55994-.28675,1.131-.58118,1.69678-.88758.65174-.353,1.29016-.728,1.89881-1.12878a8.01911,8.01911,0,0,1,2.06555-1.66962A6.08622,6.08622,0,0,0,18,1.65479,4.43881,4.43881,0,0,0,18,1H16a6.36632,6.36632,0,0,1,0,.65479A3.84889,3.84889,0,0,1,15.7514,3H4.24683A3.84857,3.84857,0,0,1,4,1.66016,6.47121,6.47121,0,0,1,4,1H2a4.51175,4.51175,0,0,0,0,.66016C2,4.39062,3.70032,6.21094,5.86035,7.65015Z"/><path d="M8,27H5.66223a13.16125,13.16125,0,0,1,2.20941-1.55951c.092-.05377.1911-.10565.28485-.15893a7.67762,7.67762,0,0,1,1.28412-2.9502c-.527.27008-1.06219.54565-1.5935.83331-.679.36768-1.347.75586-1.97809,1.17578C3.7049,25.78027,2,27.6015,2,30.33594A4.56534,4.56534,0,0,0,2,31H4a6.54768,6.54768,0,0,1,0-.66406A3.84753,3.84753,0,0,1,4.24585,29H8Z"/></svg>