<svg id="Layer_1" data-name="Layer 1" xmlns="http://www.w3.org/2000/svg" viewBox="0 0 32 32"><path d="M28.29761,19A8.3722,8.3722,0,0,0,21,11.70239V10H19v1.70239A8.3722,8.3722,0,0,0,11.70239,19H10v2h1.70239A8.3722,8.3722,0,0,0,19,28.29761V30h2V28.29761A8.3722,8.3722,0,0,0,28.29761,21H30V19Zm-2.02088,2A6.36774,6.36774,0,0,1,21,26.27673V24H19v2.27673A6.36774,6.36774,0,0,1,13.72327,21H16V19H13.72327A6.36774,6.36774,0,0,1,19,13.72327V16h2V13.72327A6.36774,6.36774,0,0,1,26.27673,19H24v2Z"/><path d="M5.86035,7.65015C6.53357,7.25171,7.21094,6.88806,7.86261,6.55A13.15709,13.15709,0,0,1,5.66571,5h8.6629a13.20451,13.20451,0,0,1-2.20038,1.55c-.67364.39331-1.39459.77246-2.13348,1.15216q-.22485.11555-.4508.23138c-.56318.28846-1.13758.58454-1.70661.89289-.67871.36779-1.34643.75628-1.97705,1.17645C3.70032,11.44214,2,13.26239,2,15.99316c0,2.73413,1.70453,4.5553,3.86865,5.99537.67346-.39826,1.3512-.762,2.00275-1.09992A11.78327,11.78327,0,0,1,5.33569,19H8V17H4.1452a3.5652,3.5652,0,0,1-.00415-2h6.79468a10.34045,10.34045,0,0,1,1.43817-2H5.32245a11.71357,11.71357,0,0,1,2.54016-1.897c.6731-.3935,1.39368-.77271,2.13226-1.15241q.23007-.11819.46118-.23669c.55994-.28675,1.131-.58118,1.69678-.88758.67908-.36779,1.34729-.7561,1.97846-1.17614C16.29529,6.21008,18,4.38879,18,1.65479A4.43881,4.43881,0,0,0,18,1H16a6.36632,6.36632,0,0,1,0,.65479A3.84889,3.84889,0,0,1,15.7514,3H4.24683A3.84857,3.84857,0,0,1,4,1.66016,6.47121,6.47121,0,0,1,4,1H2a4.51175,4.51175,0,0,0,0,.66016C2,4.39062,3.70032,6.21094,5.86035,7.65015Z"/><path d="M12.3772,27h-6.715a13.16125,13.16125,0,0,1,2.20941-1.55951c.6734-.39331,1.394-.77246,2.13269-1.152q.22532-.11582.45172-.23181l.01459-.00763A10.29573,10.29573,0,0,1,10.083,23H8.162c-.10529.056-.2099.10785-.31488.16467-.679.36768-1.347.75586-1.97809,1.17578C3.7049,25.78027,2,27.6015,2,30.33594A4.56534,4.56534,0,0,0,2,31H4a6.54768,6.54768,0,0,1,0-.66406A3.84753,3.84753,0,0,1,4.24585,29H14.88391A10.29139,10.29139,0,0,1,12.3772,27Z"/></svg>