<svg id="Layer_1" data-name="Layer 1" xmlns="http://www.w3.org/2000/svg" viewBox="0 0 32 32"><path d="M12.56812,7.36194,14.70953,6.2912A23.35713,23.35713,0,0,1,12.60956,5H17a1,1,0,0,0,0-2H10.59253A3.7375,3.7375,0,0,1,10,1H8C8,3.98688,10.05292,5.83081,12.56812,7.36194Z"/><path d="M20.81177,9.94812l-1.992.996A9.02793,9.02793,0,0,1,21.01221,13H14a1,1,0,0,0,0,2h7.89355a4.807,4.807,0,0,1,.00257,2H14a1,1,0,0,0,0,2h7.01477c-1.23968,1.71777-3.49182,2.92749-5.83655,4.18066-2.19177,1.17127-4.42865,2.36866-5.81012,4.06141a.98148.98148,0,0,0-.29529.39727A5.68055,5.68055,0,0,0,8,31h2a3.74638,3.74638,0,0,1,.5755-2H17a1,1,0,0,0,0-2H12.59845a34.87936,34.87936,0,0,1,3.52264-2.05566C19.814,22.9707,24,20.73242,24,16A7.53978,7.53978,0,0,0,20.81177,9.94812Z"/><path d="M23.71,29.29a1.03512,1.03512,0,0,0-.32959-.21A.99993.99993,0,0,0,23,29a1.05326,1.05326,0,0,0-.71.29,1.04268,1.04268,0,0,0-.21.33008.94223.94223,0,0,0,0,.76025,1.16214,1.16214,0,0,0,.21.32959,1.03548,1.03548,0,0,0,.33008.21045,1.00443,1.00443,0,0,0,.76025,0A1.028,1.028,0,0,0,23.71,30.71a1.15317,1.15317,0,0,0,.21045-.32959.94754.94754,0,0,0,0-.76025A1.03548,1.03548,0,0,0,23.71,29.29Z"/><path d="M21.12012,7.2002A1.02226,1.02226,0,0,0,21.30029,5.79,1.03338,1.03338,0,0,0,20.5,5.40039a1.00507,1.00507,0,1,0,.62012,1.79981Z"/><path d="M15.97021,8.00977a.98465.98465,0,0,0-.43994.11035.99958.99958,0,1,0,1.33985.44043A1.013,1.013,0,0,0,15.97021,8.00977Z"/><circle cx="10" cy="16.01025" r="1"/><path d="M20.52,24.61035a1.00014,1.00014,0,1,0,.61035.21A.98143.98143,0,0,0,20.52,24.61035Z"/><path d="M12.07031,12.41992a1.00025,1.00025,0,0,0,.16992-1.39941.98343.98343,0,0,0-.79-.39063,1.00254,1.00254,0,1,0,.62011,1.79Z"/><path d="M12.26025,21a.99859.99859,0,0,0-.16992-1.3999.97081.97081,0,0,0-.62012-.21.99667.99667,0,0,0-.60986,1.79A.99965.99965,0,0,0,12.26025,21Z"/><path d="M22.29,2.71a1.04669,1.04669,0,0,0,1.41992,0,1.14883,1.14883,0,0,0,.21045-.33008A.99108.99108,0,0,0,23.71,1.29a1.1515,1.1515,0,0,0-.32959-.21.94223.94223,0,0,0-.76025,0,1.15384,1.15384,0,0,0-.33008.21.98919.98919,0,0,0-.21,1.08984A1.03724,1.03724,0,0,0,22.29,2.71Z"/></svg>