<svg id="Layer_1" data-name="Layer 1" xmlns="http://www.w3.org/2000/svg" viewBox="0 0 32 32"><path d="M13.87164,25.44049c.6734-.39331,1.39405-.77246,2.13269-1.152q.22532-.11582.45172-.23181c.56281-.28815,1.13685-.584,1.70551-.89215.67877-.3678,1.34656-.75623,1.97723-1.17633C22.29926,20.54883,24,18.72839,24,15.99756c0-2.73407-1.70483-4.55536-3.8689-5.9953-.67358.39831-1.35138.76214-2.00311,1.10016A11.75275,11.75275,0,0,1,20.673,13H11.32245a11.71357,11.71357,0,0,1,2.54016-1.897c.6731-.3935,1.39368-.77271,2.13226-1.15241q.23007-.11819.46118-.23669c.55994-.28675,1.131-.58118,1.69678-.88758.67908-.36779,1.34729-.7561,1.97846-1.17614C22.29529,6.21008,24,4.38879,24,1.65479A4.43881,4.43881,0,0,0,24,1H22a6.36632,6.36632,0,0,1,0,.65479A3.84889,3.84889,0,0,1,21.7514,3H10.24683A3.84857,3.84857,0,0,1,10,1.66016,6.47121,6.47121,0,0,1,10,1H8a4.51175,4.51175,0,0,0,0,.66016c0,2.73046,1.70032,4.55078,3.86035,5.99.67322-.39844,1.35059-.76209,2.00226-1.10016A13.15709,13.15709,0,0,1,11.66571,5h8.6629a13.20451,13.20451,0,0,1-2.20038,1.55c-.67364.39331-1.39459.77246-2.13348,1.15216q-.22485.11555-.4508.23138c-.56318.28846-1.13758.58454-1.70661.89289-.67871.36779-1.34643.75628-1.977,1.17645C9.70032,11.44214,8,13.26239,8,15.99316c0,2.73413,1.70453,4.5553,3.86865,5.99537.67346-.39826,1.3512-.762,2.00275-1.09992A11.78327,11.78327,0,0,1,11.33569,19h9.33289a11.74782,11.74782,0,0,1-2.53168,1.88849c-.67309.39349-1.39355.77264-2.13214,1.15234q-.2298.11811-.46081.23651c-.55994.28669-1.13105.581-1.69684.88733-.679.36768-1.347.75586-1.97809,1.17578C9.7049,25.78027,8,27.6015,8,30.33594A4.56534,4.56534,0,0,0,8,31h2a6.54768,6.54768,0,0,1,0-.66406A3.84753,3.84753,0,0,1,10.24585,29H21.7561A3.84715,3.84715,0,0,1,22,30.33008,6.66369,6.66369,0,0,1,22,31h2a4.38148,4.38148,0,0,0,0-.66992c0-2.73041-1.70068-4.55029-3.861-5.98926-.6731.39832-1.35053.76184-2.00208,1.09979A13.11452,13.11452,0,0,1,20.34344,27H11.66223A13.16125,13.16125,0,0,1,13.87164,25.44049ZM10.1452,17a3.5652,3.5652,0,0,1-.00415-2H21.8576a3.56492,3.56492,0,0,1-.00146,2Z"/></svg>