<svg id="Layer_1" data-name="Layer 1" xmlns="http://www.w3.org/2000/svg" viewBox="0 0 32 32"><path d="M24.54913,16.607l-1.0589-2.85015-.043-.09864A2.98517,2.98517,0,0,0,20.76367,12H11.23633a2.98517,2.98517,0,0,0-2.6836,1.6582L7.452,16.6076,6.23633,16H4v2H5.76367l.54816.27411L5,19.58594V28a2.0026,2.0026,0,0,0,2,2H9a2.00335,2.00335,0,0,0,1.94434-1.53027L11.41406,28h9.17188l.46972.46973A2.00335,2.00335,0,0,0,23,30h2a2.0026,2.0026,0,0,0,2-2V19.58594l-1.31409-1.31409L26.23633,18H28V16H25.76367ZM11.23633,14h9.52734a.99528.99528,0,0,1,.874.5127l1.04,2.79919c-.43261.09882-.99963.2099-1.69067.317.00372-.04316.013-.08472.013-.12885a1.5,1.5,0,0,0-3,0,1.48316,1.48316,0,0,0,.07086.4325C17.42218,17.97131,16.74286,18,16,18a30.36366,30.36366,0,0,1-6.67767-.68811l1.04-2.79919A.99528.99528,0,0,1,11.23633,14ZM21.41406,26H18V25H14v1H10.58594l-1,1H7V23.21973l3.80371.76074A.97225.97225,0,0,0,11.001,24a1,1,0,0,0,.19531-1.98047L7,21.1803v-.76624L8.29108,19.123A31.08055,31.08055,0,0,0,16,20a31.08144,31.08144,0,0,0,7.70892-.877L25,20.41406v.76624l-4.19629.83923A1,1,0,0,0,20.999,24a.97907.97907,0,0,0,.19727-.01953L25,23.21973V27H22.41406Z"/><path d="M16.8125,2.417,15.999,1.29,15.1875,2.417A21.16046,21.16046,0,0,1,.90039,10.00488L0,10.09473V28H2V11.88867a23.14632,23.14632,0,0,0,14-7.3164,23.14632,23.14632,0,0,0,14,7.3164V28h2V10.09473l-.90039-.08985A21.16046,21.16046,0,0,1,16.8125,2.417Z"/></svg>