<svg viewBox="0 0 32 32" xmlns="http://www.w3.org/2000/svg"><path d="m24.80713 15.519a8.64409 8.64409 0 0 1 1.19287 4.481 10 10 0 0 1 -20 0 8.91129 8.91129 0 0 1 1.19531-4.48584c2.02783-3.64258 7.71778-12.665 7.959-13.04736l.84569-1.34034.8457 1.34034c.24121.38232 5.93116 9.40478 7.9585 13.04736h.00049m-1.74756.97266c-1.53955-2.76563-5.35303-8.88721-7.05713-11.60645-1.7041 2.71924-5.51758 8.84082-7.05713 11.60645a6.90037 6.90037 0 0 0 -.94287 3.51318 8 8 0 0 0 16 0 6.69538 6.69538 0 0 0 -.94043-3.5083"/><path d="m13.43262 16.709-1.72262-1.01662c.33692-.57031.7085-1.1914 1.1001-1.83935l1.7119 1.03515c-.38772.64112-.75638 1.25635-1.08938 1.82082z"/><path d="m16 26a6.00657 6.00657 0 0 1 -6-6 4.85664 4.85664 0 0 1 .69043-2.54l1.74609.97461a2.90992 2.90992 0 0 0 -.43652 1.56539 4.00427 4.00427 0 0 0 4 4z"/></svg>