<svg id="Layer_1" data-name="Layer 1" xmlns="http://www.w3.org/2000/svg" viewBox="0 0 32 32"><path d="M30.38379,19.69629l-1.53314-2.55536A22.96393,22.96393,0,0,0,29,14V12H27.62762A12.988,12.988,0,0,0,2,15a12.77085,12.77085,0,0,0,3.22461,8.63184c1.74219,2.13964,1.89746,3.7998,1.85156,7.35546l2,.0254A24.60829,24.60829,0,0,0,8.88776,27H20.58594l1.03113,1.03113A2.86979,2.86979,0,0,0,19,31h2a.91471.91471,0,0,1,1-1h2a5.3148,5.3148,0,0,0,4.89453-2.55273l1.76367-5.25879A2.99972,2.99972,0,0,0,30.38379,19.69629Zm-6.776-1.37476A2,2,0,0,1,22,16.36041V15a1,1,0,0,1,1-1h4c0,2,0,4-1,5ZM20.2796,25H8.35657a9.84241,9.84241,0,0,0-1.58118-2.63184A10.77877,10.77877,0,0,1,4,15a10.91462,10.91462,0,0,1,1.10138-4.76587l4.50885,2.75543a5.96247,5.96247,0,0,1,2.3595-.90246L6.13165,8.51935A10.97606,10.97606,0,0,1,25.57263,12H23a2.98176,2.98176,0,0,0-2.21967,1H15.96906a5.01483,5.01483,0,0,1,1.60711,2H20v1.36041a3.97085,3.97085,0,0,0,.05817.66962l-2.26886-1.38654A4.93094,4.93094,0,0,1,18,17v1.11664l3.8,2.3222Zm8.48114-3.44336L27.083,26.58984a3.34376,3.34376,0,0,1-2.6836,1.39551L22.1438,25.72974l1.658-4.97388.43951-.17578,1.213.34405,1.12964.32038.83026-.83033a4.33868,4.33868,0,0,0,.60273-.77545l.652,1.08686A1.00218,1.00218,0,0,1,28.76074,21.55664Z"/><path d="M13,14a3.93145,3.93145,0,0,0-2.874,1.13965A4.02848,4.02848,0,0,0,9,18.01367C9.04,20.94922,10.68457,23,13,23V21c-1.54688,0-1.98438-1.89453-2-3.01367a2.01391,2.01391,0,0,1,.5498-1.44238A1.95533,1.95533,0,0,1,13,16a1.001,1.001,0,0,1,1,1v1h2V17A3.00328,3.00328,0,0,0,13,14Z"/></svg>