<svg viewBox="0 0 32 32" xmlns="http://www.w3.org/2000/svg"><path d="m31.30957 13.06494a3.25075 3.25075 0 0 0 -1.94452-1.05261l.00995-.027-10.81543-4-.75 2.0293 5.24664 1.94043h-14.11221l5.24689-1.94043-.75-2.0293-10.81592 4 .00995.027a3.253 3.253 0 0 0 -1.945 1.05261 2.93806 2.93806 0 0 0 -.70849 2.32471l.94873 3.93847a6.38367 6.38367 0 0 0 6.34668 4.7168h2.17043c2.65771 0 4.61962-1.74609 5.38232-4.791.2793-1.11524.75049-1.209 1.17041-1.209s.89111.09375 1.1709 1.209c.76172 3.04492 2.72363 4.791 5.38183 4.791h2.16993a6.38524 6.38524 0 0 0 6.34765-4.7168l.92774-3.83447.01953-.104a2.93418 2.93418 0 0 0 -.70801-2.32471zm-2.27051 5.771a4.35965 4.35965 0 0 1 -4.3164 3.11914h-2.16993c-2.10839 0-2.98828-1.74512-3.35449-3.21a3.22774 3.22774 0 0 0 -6.396.001c-.3667 1.46387-1.24659 3.209-3.355 3.209h-2.17038a4.35888 4.35888 0 0 1 -4.31543-3.11914l-.91358-3.772a.83509.83509 0 0 1 .2168-.62451 1.21229 1.21229 0 0 1 .91992-.39453h25.63086a1.20908 1.20908 0 0 1 .919.394.8378.8378 0 0 1 .21777.62549z"/></svg>