<svg id="Layer_1" data-name="Layer 1" xmlns="http://www.w3.org/2000/svg" viewBox="0 0 32 32"><path d="M18.34131,10.769a3.96223,3.96223,0,0,0-4.68262.00049A6.11228,6.11228,0,0,1,10.13721,12H10v2h.13721a8.08636,8.08636,0,0,0,4.68359-1.603,1.93639,1.93639,0,0,1,2.35791-.00049A8.08613,8.08613,0,0,0,21.86279,14H22V12h-.13721A6.10951,6.10951,0,0,1,18.34131,10.769Z"/><path d="M30.13037,8.31641c-1.09961-.793-2.59521-.88135-4.44678-.26514l.00025.00073a8.02475,8.02475,0,0,1-4.36743-.00073A10.75916,10.75916,0,0,1,18.833,6.88281,4.69628,4.69628,0,0,0,16.00732,6a4.7353,4.7353,0,0,0-2.83544.8833,10.86139,10.86139,0,0,1-2.48829,1.168,7.9621,7.9621,0,0,1-4.36181-.00049l-.00537.00049c-1.85157-.61621-3.34717-.52783-4.44678.26514C.61133,9.22314,0,10.919,0,13.5a8.53506,8.53506,0,0,0,3.31934,7.00293,5.76757,5.76757,0,0,0,3.271,1.002,6.91793,6.91793,0,0,0,1.62073-.21069C10.25378,24.2984,13.01,26,16.00732,26c2.9903,0,5.74506-1.70032,7.79151-4.70337a6.91018,6.91018,0,0,0,1.61084.20825,5.76757,5.76757,0,0,0,3.271-1.002A8.53506,8.53506,0,0,0,32,13.5C32,10.919,31.38867,9.22314,30.13037,8.31641ZM4.44043,18.84668A6.50375,6.50375,0,0,1,2,13.5c0-1.83984.35938-3.0708,1.03906-3.561a2.48952,2.48952,0,0,1,2.02161-.15771c.15069,1.87213.66888,6.89917,2.05212,9.666l.0091.01611A3.83383,3.83383,0,0,1,4.44043,18.84668ZM16.00732,24c-2.78466,0-5.37451-1.98535-7.10546-5.44727-1.08838-2.17675-1.59327-6.21484-1.79-8.29589a9.71479,9.71479,0,0,0,4.20459-.30811,12.93674,12.93674,0,0,0,2.89209-1.355A2.844,2.844,0,0,1,16.00732,8a2.8073,2.8073,0,0,1,1.78516.59082,12.81276,12.81276,0,0,0,2.89111,1.35791,9.35817,9.35817,0,0,0,4.22071.30371c-.19532,2.0791-.69873,6.12256-1.79053,8.29932C21.376,22.01367,18.78564,24,16.00732,24Zm11.55225-5.15332a3.834,3.834,0,0,1-2.66827.61853l.00958-.017c1.389-2.76727,1.90485-7.80108,2.05389-9.67108a2.47581,2.47581,0,0,1,2.00617.1618C29.64062,10.4292,30,11.66016,30,13.5A6.50375,6.50375,0,0,1,27.55957,18.84668Z"/></svg>