<svg id="Layer_1" data-name="Layer 1" xmlns="http://www.w3.org/2000/svg" viewBox="0 0 32 32"><path d="M29.23438,8.7041a4.53429,4.53429,0,0,0-4.63691.374,5.85417,5.85417,0,0,1-3.28106-.02679A10.75916,10.75916,0,0,1,18.833,7.88281,4.70432,4.70432,0,0,0,16,7a4.71474,4.71474,0,0,0-2.83057.8833,10.81594,10.81594,0,0,1-2.48535,1.168,5.85707,5.85707,0,0,1-3.28155.02685,4.53508,4.53508,0,0,0-4.63691-.374C1.00781,9.64453,0,11.75732,0,14.5a9.82379,9.82379,0,0,0,2.81836,7.124,5.36126,5.36126,0,0,0,3.62939,1.40821c.10016,0,.20288-.01239.3042-.01783A19.19983,19.19983,0,0,0,16,25a19.19709,19.19709,0,0,0,9.24811-1.98566c.10156.00544.2041.01789.30462.01789A5.36186,5.36186,0,0,0,29.18164,21.624,9.82379,9.82379,0,0,0,32,14.5C32,11.75732,30.99219,9.64453,29.23438,8.7041ZM2,14.5c0-1.95215.63916-3.46,1.70947-4.03271A2.43656,2.43656,0,0,1,6,10.59351V20.99a3.3928,3.3928,0,0,1-1.8501-.85815A7.79507,7.79507,0,0,1,2,14.5ZM16,23a18.13954,18.13954,0,0,1-8-1.58887V11.22894a7.49809,7.49809,0,0,0,3.31641-.28021A12.897,12.897,0,0,0,14.208,9.59229a3.01,3.01,0,0,1,3.584-.00147,12.83,12.83,0,0,0,2.8916,1.35791,7.14711,7.14711,0,0,0,2.26075.35352A8.19188,8.19188,0,0,0,24,11.23181V21.41113A18.14852,18.14852,0,0,1,16,23Zm11.85059-2.86816A3.38082,3.38082,0,0,1,26,20.99121V10.59308a2.42912,2.42912,0,0,1,2.291-.12579C29.36133,11.04,30,12.54785,30,14.5A7.79683,7.79683,0,0,1,27.85059,20.13184Z"/><rect x="10" y="18" width="12" height="2"/><rect x="10" y="14" width="12" height="2"/></svg>