<svg id="Layer_1" data-name="Layer 1" xmlns="http://www.w3.org/2000/svg" viewBox="0 0 32 32"><path d="M26,8v.00494a.98279.98279,0,0,0-.28857.04,8.1006,8.1006,0,0,1-4.395.00684A10.75608,10.75608,0,0,1,18.833,6.88281,4.69628,4.69628,0,0,0,16.00732,6a4.732,4.732,0,0,0-2.83544.88379,10.90341,10.90341,0,0,1-2.48829,1.168,8.00188,8.00188,0,0,1-4.36181-.001L6,8C3.58008,8,0,9.27148,0,12a2.73775,2.73775,0,0,0,1.21533,2.26367,3.827,3.827,0,0,0,2.18994.59082,8.76,8.76,0,0,0,2.26062-.35577,22.62817,22.62817,0,0,0,1.11975,4.20953A9.037,9.037,0,0,1,4.3042,20.05273a3.04858,3.04858,0,0,0-2.24365,2.11036A2.72711,2.72711,0,0,0,2.91846,24.707a5.37451,5.37451,0,0,0,3.83789,1.19141,20.11829,20.11829,0,0,0,5.3822-.89569,7.994,7.994,0,0,0,7.72937.002,20.10951,20.10951,0,0,0,5.37573.89374A5.379,5.379,0,0,0,29.08154,24.707a2.72711,2.72711,0,0,0,.85791-2.54394,3.04858,3.04858,0,0,0-2.24365-2.11036,9.0213,9.0213,0,0,1-2.46948-1.33581,22.473,22.473,0,0,0,1.12384-4.21375,8.739,8.739,0,0,0,2.24457.35132,3.827,3.827,0,0,0,2.18994-.59082A2.73775,2.73775,0,0,0,32,12C32,9.27148,28.41992,8,26,8ZM2.33643,12.60742A.73977.73977,0,0,1,2,12c0-.92493,1.5274-1.69208,3.08594-1.92242.05359.61908.13934,1.46765.2688,2.435C3.42334,13.08649,2.61139,12.79315,2.33643,12.60742ZM4.33252,23.293a.84556.84556,0,0,1-.32422-.67481c.043-.18554.312-.459.93848-.67089A10.85389,10.85389,0,0,0,7.71149,20.508a13.46766,13.46766,0,0,0,2.33838,2.969C7.80286,23.96521,5.19019,24.15063,4.33252,23.293ZM9.15247,19H11V17H8.30939c-.195-.62946-.36316-1.30426-.5072-2H11V13H7.446c-.15594-1.043-.26544-2.01544-.33422-2.74316a9.67707,9.67707,0,0,0,4.20459-.3086A12.963,12.963,0,0,0,14.2085,8.59375,2.84679,2.84679,0,0,1,16.00732,8a2.81015,2.81015,0,0,1,1.78516.59082,12.795,12.795,0,0,0,2.89111,1.35742,9.31675,9.31675,0,0,0,4.22071.30371c-.06842.72834-.17755,1.70276-.3335,2.748H21v2h3.2149c-.1441.69574-.3125,1.37067-.50769,2H21v2h1.86182c-1.73145,3.17444-4.203,5-6.8545,5C13.34943,24,10.878,22.175,9.15247,19ZM27.9917,22.61816a.84556.84556,0,0,1-.32422.67481c-.85516.856-3.46356.6723-5.70947.18548a13.507,13.507,0,0,0,2.33941-2.96392,10.85445,10.85445,0,0,0,2.7558,1.43274C27.67969,22.15918,27.94873,22.43262,27.9917,22.61816Zm1.67187-10.01074c-.27459.18524-1.08319.477-3.00244-.09033.12934-.96783.21479-1.81708.26807-2.437C28.48248,10.31323,30,11.07812,30,12A.73977.73977,0,0,1,29.66357,12.60742Z"/></svg>