<svg viewBox="0 0 32 32" xmlns="http://www.w3.org/2000/svg"><path d="m15 10a4 4 0 1 1 4-4 4.00458 4.00458 0 0 1 -4 4zm0-6a2 2 0 1 0 2 2 2.002 2.002 0 0 0 -2-2z"/><path d="m26.00488 30.32812-7.91406-6.0039-4.38382 4.38278a5.321 5.321 0 0 1 -3.8403 1.293 6.02219 6.02219 0 0 1 -5.76123-3.55273 16.304 16.304 0 0 1 1.03711-13.96192 5.01888 5.01888 0 0 1 4.99072-2.47656 5.40373 5.40373 0 0 1 4.34961 2.77539 4.44206 4.44206 0 0 1 .168 3.417l-.25977.77246h3.59522a3.0387 3.0387 0 0 1 .55273.05078 5.08366 5.08366 0 0 1 3.13083 1.64358l7.7168 8.22558zm-16.54199-18.36425a3.0869 3.0869 0 0 0 -2.60547 1.55078 14.32553 14.32553 0 0 0 -.96289 12.03808 4.05618 4.05618 0 0 0 3.97217 2.44727 3.56034 3.56034 0 0 0 2.42285-.70312l4.29639-4.29688h-5.58594a3.82292 3.82292 0 0 1 -3.07373-1.77734 3.904 3.904 0 0 1 -.50488-3.25586l.61474-2.23242 1.92774.53124-.61426 2.23243a1.97444 1.97444 0 0 0 1.65039 2.50195h6.98633a1.01348 1.01348 0 0 0 .25976-1.99316c-.07809-.00484-.16015-.00684-.24609-.00684v-.02637h-6.39111l1.14648-3.41015a2.498 2.498 0 0 0 -.063-1.88819 3.60446 3.60446 0 0 0 -2.82567-1.68408 3.03392 3.03392 0 0 0 -.40381-.02734zm9.81055 10.74707 6.54 4.96094.7998-.81153-5.71484-6.09668a3.02611 3.02611 0 0 1 -1.62496 1.94727z"/><path d="m19 11h2v3h-2z"/><path d="m23.09601 13.40392h3.00037v1.99979h-3.00037z" transform="matrix(.70710678 -.70710678 .70710678 .70710678 -2.98097 21.61091)"/><path d="m25 18h3v2h-3z"/></svg>