<svg viewBox="0 0 32 32" xmlns="http://www.w3.org/2000/svg"><path d="m15 10.09473a.99974.99974 0 0 0 -1 1v13.18267a2 2 0 1 0 2 0v-13.18267a.99974.99974 0 0 0 -1-1z"/><path d="m19.89709 11.09473h-1.99523c.01409.15527.03369.30706.03369.47119l.00311 1.52881h2l-.00311-1.53073c0-.16239-.0279-.31162-.03846-.46927z"/><path d="m17.9726 23.09473a.98617.98617 0 0 0 .14947.45215 4.865 4.865 0 0 1 .70993 2.45312 3.86562 3.86562 0 1 1 -7.72656 0 4.181 4.181 0 0 1 .79492-2.416.9987.9987 0 0 0 .18848-.60546c-.001-.04395-.09473-4.49512-.07715-11.41456 0-2.05517 1.24121-3.49023 3.01855-3.49023a2.65445 2.65445 0 0 1 2.14331 1.021h2.26978a4.70363 4.70363 0 0 0 -4.41309-3.021c-2.9082 0-5.01855 2.30908-5.01855 5.48779-.01465 5.88868.05078 10.002.07129 11.14063a6.18128 6.18128 0 0 0 -.97751 3.29783 5.93919 5.93919 0 0 0 5.86328 6 5.93919 5.93919 0 0 0 5.86325-6 6.90722 6.90722 0 0 0 -.69232-2.90527z"/><path d="m17.943 15.095.004 2h2l-.004-2z"/><path d="m19.955 21.095-.004-2h-2l.004 2z"/><path d="m29.92871 20.62891-1.92871-4.82129v-.80762a13 13 0 0 0 -26 0 11.50862 11.50862 0 0 0 2.75885 8.11981l1.41388-1.41388a9.58387 9.58387 0 0 1 -2.17273-6.70593 11 11 0 0 1 22 0v1a1.00748 1.00748 0 0 0 .07129.37158l1.45215 3.62842h-2.52344v7a1.00067 1.00067 0 0 1 -1 1h-1v2h1a3.00328 3.00328 0 0 0 3-3v-5h2a1.00012 1.00012 0 0 0 .92871-1.37109z"/></svg>