<svg viewBox="0 0 32 32" xmlns="http://www.w3.org/2000/svg"><path d="m2.71 25.71-1.42-1.42 6.3-6.29h10.41v1a5 5 0 0 1 -5 5h-2v-2h2a3 3 0 0 0 2.83-2h-7.42z"/><path d="m7.71 30.71-1.42-1.42 3.3-3.29h9l8.86-8.87a3.44 3.44 0 0 0 -3.74.58l-3 3-1.42-1.42 3-3a5.46 5.46 0 0 1 7.42 0l.7.71-11 11h-9z"/><path d="m16 15.41-5.67-5.66a3.91 3.91 0 0 1 0-5.5 4 4 0 0 1 5.5 0l.17.17.17-.17a4 4 0 0 1 5.5 0 3.91 3.91 0 0 1 0 5.5zm-3.38-6.2 3.38 3.38 4.25-4.26a1.88 1.88 0 0 0 0-2.66 1.92 1.92 0 0 0 -2.67 0l-1.58 1.58-1.58-1.58a1.92 1.92 0 0 0 -2.67 0 1.88 1.88 0 0 0 0 2.66z"/></svg>