<svg viewBox="0 0 32 32" xmlns="http://www.w3.org/2000/svg"><path d="m23 25.12-1-1.73a12 12 0 1 1 -12-20.78l-1-1.74a14 14 0 0 0 6 26.13v3h-5v2h12v-2h-5v-3a14 14 0 0 0 6-1.88z"/><path d="m24.66 8a10 10 0 1 0 1 7.59 10 10 0 0 0 -1-7.59zm-8.66-3a8 8 0 0 1 5.5 2.2 5.76 5.76 0 0 1 -1.5 2.68 16.49 16.49 0 0 0 -4.09-4.61l-.4-.27zm1.33 14.12a13.62 13.62 0 0 1 -3-3.11 20.46 20.46 0 0 0 2.67-1.28 20.84 20.84 0 0 0 2.42-1.63 13.68 13.68 0 0 1 1.22 4.1c.14 1.37-.1 2.42-.64 2.73s-1.57 0-2.68-.81zm-5.33-13.05a1 1 0 0 1 .5-.07 4.16 4.16 0 0 1 2.18.93 15 15 0 0 1 3.79 4.41 17.49 17.49 0 0 1 -2.47 1.66 19.34 19.34 0 0 1 -2.71 1.29c-2.29-4.14-2.29-7.62-1.29-8.22zm-2.66 2.51a15.89 15.89 0 0 0 2 6.28 5.68 5.68 0 0 1 -3.1 0 8.08 8.08 0 0 1 1.1-6.28zm4.59 12.15a7.93 7.93 0 0 1 -4.82-3.68h.43a11.37 11.37 0 0 0 2.86-.42 16 16 0 0 0 3.74 4.07c.13.1.26.17.38.25a8.15 8.15 0 0 1 -2.59-.22zm9.8-5.66a7.8 7.8 0 0 1 -1.08 2.36c0-.14 0-.29 0-.44a16.56 16.56 0 0 0 -1.65-5.27 10.71 10.71 0 0 0 2-2.66 8 8 0 0 1 .73 6.01z"/></svg>