<svg id="Layer_1" data-name="Layer 1" xmlns="http://www.w3.org/2000/svg" viewBox="0 0 32 32"><path d="M16,2A14,14,0,1,0,30,16,14.01572,14.01572,0,0,0,16,2Zm5.81445,17.45831A33.197,33.197,0,0,0,22,16a33.19634,33.19634,0,0,0-.19165-3.52142,18.75089,18.75089,0,0,0,5.02972-1.59577A11.90707,11.90707,0,0,1,28,16C28,17.17383,25.73694,18.67065,21.81445,19.45831ZM16,28c-1.17419,0-2.67084-2.26312-3.45837-6.18561A33.198,33.198,0,0,0,16,22a33.196,33.196,0,0,0,3.45831-.18555C18.67065,25.73694,17.17383,28,16,28Zm0-8a32.03336,32.03336,0,0,1-3.78259-.21741A32.03259,32.03259,0,0,1,12,16c0-1.14923.0611-2.2207.16138-3.2265A33.40376,33.40376,0,0,0,16,13a33.41311,33.41311,0,0,0,3.83862-.2262C19.9389,13.77954,20,14.85089,20,16a32.03259,32.03259,0,0,1-.21741,3.78259A32.03259,32.03259,0,0,1,16,20ZM16,4c1.23352,0,2.82458,2.49683,3.57336,6.79523A31.85062,31.85062,0,0,1,16,11a31.80675,31.80675,0,0,1-3.57336-.20514C13.17529,6.4967,14.76617,4,16,4Zm9.83838,5.14911A16.62767,16.62767,0,0,1,21.53046,10.505a18.03522,18.03522,0,0,0-1.98761-5.97021A12.04272,12.04272,0,0,1,25.83838,9.14911ZM12.4574,4.53479a18.03672,18.03672,0,0,0-1.98767,5.97A16.66192,16.66192,0,0,1,6.16168,9.14911,12.04374,12.04374,0,0,1,12.4574,4.53479ZM5.1618,10.88324a18.76326,18.76326,0,0,0,5.02991,1.59528,32.375,32.375,0,0,0-.0061,6.97979C6.26312,18.67072,4,17.17383,4,16A11.90608,11.90608,0,0,1,5.1618,10.88324Zm-.627,8.65961A17.99724,17.99724,0,0,0,10.475,21.525a17.99739,17.99739,0,0,0,1.9823,5.94025A12.0514,12.0514,0,0,1,4.53479,19.54285Zm15.00812,7.92242A17.99492,17.99492,0,0,0,21.525,21.525a17.9963,17.9963,0,0,0,5.94025-1.98211A12.05116,12.05116,0,0,1,19.54291,27.46527Z"/></svg>