<svg viewBox="0 0 32 32" xmlns="http://www.w3.org/2000/svg"><path d="m26.73.22a3.45 3.45 0 0 0 -3.42.53 3.17 3.17 0 0 0 -1.1 2.32 3.85 3.85 0 0 0 1 2.55c-.05.15-.09.31-.13.46a4.7 4.7 0 0 0 -4.08 4.92 23.22 23.22 0 0 0 .66 4.56c.48 2.28 1 4.62.44 6.34a8.28 8.28 0 0 0 -4.1-.9 8.28 8.28 0 0 0 -4.1.9c-.52-1.72 0-4.06.44-6.34a23.22 23.22 0 0 0 .66-4.56 4.68 4.68 0 0 0 -3.9-4.88 4.67 4.67 0 0 0 -.1-.5 3.93 3.93 0 0 0 1-2.55 3.19 3.19 0 0 0 -1.11-2.32 3.44 3.44 0 0 0 -3.42-.53c-1 .33-3.47 1.51-4.24 5.58-.95 4.74 1.11 7.6 3.56 8.35a4.06 4.06 0 0 0 1.13.16 3.79 3.79 0 0 0 3.08-1.48c.39-.56 1.1-2-.17-4.11a3.73 3.73 0 0 0 .17-.56 2.69 2.69 0 0 1 2 2.84 21.87 21.87 0 0 1 -.62 4.15c-.59 2.81-1.23 5.92 0 8.28a3.4 3.4 0 0 0 -.38 1.57c0 .92 0 2.62 2.55 3.89a2.56 2.56 0 0 1 1.45 2.11v1h4v-1a2.54 2.54 0 0 1 1.45-2.11 4.14 4.14 0 0 0 2.55-3.89 3.4 3.4 0 0 0 -.37-1.57c1.22-2.36.58-5.47 0-8.28a21.87 21.87 0 0 1 -.63-4.15 2.7 2.7 0 0 1 2.18-2.89 4.39 4.39 0 0 0 .21.61c-1.26 2.11-.55 3.55-.16 4.11a3.79 3.79 0 0 0 3.05 1.48 3.65 3.65 0 0 0 1.13-.17c2.46-.74 4.52-3.6 3.57-8.34-.81-4.07-3.24-5.25-4.25-5.58zm-19.38 11.45a1.92 1.92 0 0 1 -2 .56c-1.59-.48-2.88-2.53-2.18-6 .61-3 2.23-3.86 2.89-4.07a2.31 2.31 0 0 1 .75-.16 1.07 1.07 0 0 1 .71.2 1.16 1.16 0 0 1 .48.9c0 .31-.15.85-1 1.64l-.55.55.46.71a2 2 0 0 1 -.08 2.21l-.43.58.43.59c.41.52 1.02 1.62.52 2.29zm11.2 15.44a4.49 4.49 0 0 0 -2.39 2.89h-.32a4.49 4.49 0 0 0 -2.39-2.89c-1.45-.73-1.45-1.34-1.45-2.11 0-1.8 2.8-2 4-2s4 .2 4 2a2.15 2.15 0 0 1 -1.45 2.11zm8.29-14.88a1.9 1.9 0 0 1 -2-.56c-.5-.71.11-1.77.52-2.33l.43-.59-.43-.58a2 2 0 0 1 -.06-2.17l.38-.7-.56-.56c-.76-.76-.92-1.29-.91-1.6a1.16 1.16 0 0 1 .48-.89 1.07 1.07 0 0 1 .71-.25 2.25 2.25 0 0 1 .72.12c.67.21 2.29 1 2.9 4.07.7 3.51-.59 5.56-2.18 6.04z"/></svg>