<svg id="Layer_1" data-name="Layer 1" xmlns="http://www.w3.org/2000/svg" viewBox="0 0 32 32"><path d="M27.40289,19.01117,30.707,15.707,29.293,14.293l-3.30408,3.30408L22.20508,13.813,20.791,15.22705l6.36328,6.36377a.99845.99845,0,0,1-.001,1.41406,1.02231,1.02231,0,0,1-1.41309,0l-.707-.707-2.82812-2.82812L20.791,20.88379l2.82812,2.82812a1.00024,1.00024,0,0,1-1.41406,1.415l-.7027-.70269-.00433-.00531L19.376,22.29785l-1.41407,1.41406L20.083,25.833a1.00171,1.00171,0,0,1,.001,1.415,1.012,1.012,0,0,1-1.4414-.02539l-1.25049-1.16278a2.96276,2.96276,0,0,0-.84473-2.34894,2.93043,2.93043,0,0,0-1.31353-.74567,2.99724,2.99724,0,0,0-4.41956-3.26178,2.9542,2.9542,0,0,0-.63019-.94079,3.01546,3.01546,0,0,0-4.11-.10267L2.707,15.293,1.293,16.707l3.35181,3.35181L4.562,20.1416a3.0596,3.0596,0,0,0-.90283,2.13379,2.94739,2.94739,0,0,0,2.84369,3.00012,2.93628,2.93628,0,0,0,2.959,2.83875,3.06226,3.06226,0,0,0,.67505-.08307,2.92723,2.92723,0,0,0,.75415,1.338,2.96577,2.96577,0,0,0,2.10645.86719A3.06813,3.06813,0,0,0,15.169,29.334l1.34326-1.34375.00842-.01025.73425.68213A2.97663,2.97663,0,0,0,22.254,27.33832a2.94822,2.94822,0,0,0,2.77923-.7973,2.9645,2.9645,0,0,0,.75562-1.32172,2.99648,2.99648,0,0,0,2.77954-5.04254ZM5.65869,22.30078a1.069,1.069,0,0,1,.31787-.74512l1.34326-1.34375a1.07416,1.07416,0,0,1,.75733-.31738.965.965,0,0,1,.9751.98731,1.06569,1.06569,0,0,1-.31739.74316L7.39111,22.96973a1.07316,1.07316,0,0,1-.74463.31836.96763.96763,0,0,1-.98779-.98731ZM8.77,25.834a1.0278,1.0278,0,0,1,.03516-1.45019l2.793-2.793a.977.977,0,0,1,1.41407,0,.978.978,0,0,1,.00049,1.41406l-2.794,2.793A1.02384,1.02384,0,0,1,8.77,25.834Zm6.32812.74219-1.34326,1.34375a1.00143,1.00143,0,1,1-1.41406-1.415l1.34375-1.34277a1.06943,1.06943,0,0,1,.75732-.31836.9723.9723,0,0,1,.6919.28223A1.02783,1.02783,0,0,1,15.09814,26.57617Z"/><path d="M12.58594,10l-3,3,.707.707A5.23745,5.23745,0,0,0,14,15.16211,5.23746,5.23746,0,0,0,17.707,13.707l1.48926-1.48877L17.78223,10.8042,16.293,12.293a3.44853,3.44853,0,0,1-3.74756.57568L17.41406,8h9l3.293-3.293L28.293,3.293,25.58594,6h-9l-2,2H8.41406L3.707,3.293,2.293,4.707,7.58594,10Z"/></svg>