<svg viewBox="0 0 32 32" xmlns="http://www.w3.org/2000/svg"><path d="m20 17.77411v9.22589a1.00067 1.00067 0 0 1 -1 1h-8a1.00067 1.00067 0 0 1 -1-1v-12a3.00328 3.00328 0 0 1 3-3h4a2.98207 2.98207 0 0 1 1.17517.24072 4.57005 4.57005 0 0 1 .36487-.93506c.12451-.22888.47168-.8767.46-.88183v-4.42383h-3.00004v-2h4a1.001 1.001 0 0 1 1 1h2a3.00328 3.00328 0 0 0 -3-3h-8v2h2v2h-3v4.42383a5.00324 5.00324 0 0 0 -3 4.57617v12a3.00328 3.00328 0 0 0 3 3h8a3.00328 3.00328 0 0 0 3-3v-8.35608a4.9413 4.9413 0 0 1 -2-.86981zm-7-9.77411h4v2h-4z"/><path d="m22.96467 16.73833a2.97084 2.97084 0 0 1 -3.00489-3 3.26968 3.26968 0 0 1 .33692-1.47705c.46777-.85889 1.75683-2.95752 1.81152-3.04639l.84863-1.38233.85352 1.37989c.05469.08886 1.35254 2.18847 1.82031 3.04785l.001.001a3.17644 3.17644 0 0 1 .32812 1.47705 2.96564 2.96564 0 0 1 -2.99513 2.99998zm-.002-5.07715c-.34765.57763-.71289 1.19531-.90918 1.55517a1.4803 1.4803 0 0 0 -.09375.522 1 1 0 1 0 2 0 1.46307 1.46307 0 0 0 -.08886-.52881c-.19723-.36135-.56149-.97463-.90817-1.54836z"/><path d="m18 19h-2v-2h-2v2h-2v2h2v2h2v-2h2z"/></svg>