<svg id="Layer_1" data-name="Layer 1" xmlns="http://www.w3.org/2000/svg" viewBox="0 0 32 32"><path d="M4.28223,20.53662,1.22845,30H3.32928l2.66584-8.25635,5.18359-3.98193a2.94048,2.94048,0,0,1-.984,3.27734l-.84906.65235.00019.00024-.79316.60913,1.21875,1.58594,1.6377-1.25781.00336-.00318L18.40918,17.25a1.08629,1.08629,0,0,1,1.36914-.01172,1.00119,1.00119,0,0,1-.05762,1.52637L13.36914,23.645,14.58789,25.231l6.34375-4.874.01465-.01123,1.48633-1.14209a1.087,1.087,0,0,1,1.36914-.01172,1.00252,1.00252,0,0,1-.06641,1.53272L20.48029,23.2254l-.00177.00116-4.67286,3.59033,1.21875,1.58594L21.6983,24.812a1.08546,1.08546,0,0,1,1.36811-.01117,1.00235,1.00235,0,0,1-.05079,1.522L18.047,30h3.36145l2.81128-2.08057a3.00252,3.00252,0,0,0,.21679-4.57568,2.77848,2.77848,0,0,0-.412-.319l.92956-.71417a3.00138,3.00138,0,0,0,.2168-4.57617,2.93347,2.93347,0,0,0-2.131-.76771c-.02375-.02648-.04059-.05761-.06531-.08337a3.0335,3.0335,0,0,0,.9668-1.31592,3.08454,3.08454,0,0,0-1.40528-3.70117L18.30865,9.42548a4.84535,4.84535,0,0,0,2.30854-2.02265l.54492-.96191L13.26172,2H2.05273V4H12.73828L18.292,7.12158a2.93913,2.93913,0,0,1-3.40039.33057L12.23633,5.92041l-.5.86572A4.00038,4.00038,0,0,1,6.27246,8.25l-1,1.73242a5.96521,5.96521,0,0,0,2.99024.80615,6.05506,6.05506,0,0,0,1.56347-.207,5.954,5.954,0,0,0,3.07129-1.9707l.07147.04126-.00018.00024,8.56738,4.94629a1.08541,1.08541,0,0,1,.53516,1.26026,1.003,1.003,0,0,1-1.4209.53711l-6.94922-4.01221-1,1.73242,4.45667,2.57294L15.442,17.00745l-3.74079-2.15979-.01159.02014-.00989-.01331L7.40253,18.13983,2.02246,15.0332l-1,1.73242,4.66345,2.69282Z"/><path d="M27.00488,11A2.97083,2.97083,0,0,1,24,8,3.26983,3.26983,0,0,1,24.33691,6.523c.46778-.85889,1.75684-2.95752,1.81153-3.04639l.84863-1.38232.85352,1.37988C27.90527,3.563,29.20312,5.6626,29.6709,6.522l.001.001A3.17661,3.17661,0,0,1,30,8,2.96563,2.96563,0,0,1,27.00488,11Zm-.002-5.07715c-.34766.57764-.71289,1.19531-.90918,1.55518A1.48,1.48,0,0,0,26,8a1,1,0,1,0,2,0,1.46276,1.46276,0,0,0-.08887-.52881C27.71387,7.10986,27.34961,6.49658,27.00293,5.92285Z"/></svg>