<svg id="outline" xmlns="http://www.w3.org/2000/svg" viewBox="0 0 32 32"><path d="M28,15.80762V15A13,13,0,0,0,2,15c0,3.74414,1.01562,6.42969,3.293,8.707l1,1L7.707,23.293l-1-1C4.80957,20.39551,4,18.21387,4,15a11,11,0,0,1,22,0v1a1.00748,1.00748,0,0,0,.07129.37158L27.52344,20H25v7a1.00067,1.00067,0,0,1-1,1H22v2h2a3.00328,3.00328,0,0,0,3-3V22h2a1.00012,1.00012,0,0,0,.92871-1.37109Z"/><rect x="15.67872" y="8.16639" width="3.97557" height="2.00023" transform="translate(1.56575 20.86675) rotate(-63.42865)"/><rect x="19.23449" y="11.7223" width="3.97535" height="2.00023" transform="translate(-3.44915 10.83398) rotate(-26.56505)"/><rect x="11.33338" y="7.17872" width="2.00023" height="3.97557" transform="translate(-2.7976 6.4851) rotate(-26.57135)"/><rect x="7.77772" y="10.73474" width="2.00023" height="3.97535" transform="translate(-6.52701 14.88391) rotate(-63.43495)"/></svg>