<svg viewBox="0 0 32 32" xmlns="http://www.w3.org/2000/svg"><path d="m29.92871 20.62891-1.92871-4.82129v-.80762a13 13 0 0 0 -26 0c0 3.74414 1.01562 6.42969 3.293 8.707l1 1 1.414-1.414-1-1c-1.89743-1.89749-2.707-4.07913-2.707-7.293a11 11 0 0 1 22 0v1a1.00748 1.00748 0 0 0 .07129.37158l1.45215 3.62842h-2.52344v7a1.00067 1.00067 0 0 1 -1 1h-2v2h2a3.00328 3.00328 0 0 0 3-3v-5h2a1.00012 1.00012 0 0 0 .92871-1.37109z"/><path d="m10 18h2v3h-2z"/><path d="m14 20h2v3h-2z"/><path d="m18 18h2v3h-2z"/><path d="m19.94043 9.31055a3.99136 3.99136 0 0 0 -7.41309-1.27344 3.00945 3.00945 0 0 0 -2.39843 2.0918 3.0002 3.0002 0 0 0 .87109 5.87109h7.5a3.49976 3.49976 0 0 0 1.44043-6.68945zm-1.44043 4.68945h-7.5a1 1 0 0 1 0-2h1v-1a.995.995 0 0 1 .97559-.999h.001l.88867.083.25684-.73681a1.99244 1.99244 0 0 1 3.877.59814l-.0039.92334.80273.16162a1.49978 1.49978 0 0 1 -.29793 2.96971z"/></svg>