<svg viewBox="0 0 32 32" xmlns="http://www.w3.org/2000/svg"><path d="m22.503 24.454-3.01-6.771-.928 2.317h-5.565v-2h4.212l2.184-5.46 3.212 7.229.885-1.769h5.507v2h-4.271z"/><path d="m28.72754 6.35791a8.00889 8.00889 0 0 0 -11.31348 0l-1.41406 1.41409-1.41406-1.41409a8 8 0 1 0 -11.31348 11.314l12.72754 12.7275 4.03912-4.03912-.85461-1.97369-3.18451 3.18469-11.31348-11.31397a6.00005 6.00005 0 0 1 8.48536-8.48532l2.82812 2.82907 2.82812-2.82907a6.00049 6.00049 0 0 1 10.24317 4.24268 5.92735 5.92735 0 0 1 -.81171 2.98532h2.226a7.96681 7.96681 0 0 0 -1.758-8.64209z"/></svg>