<svg viewBox="0 0 32 32" xmlns="http://www.w3.org/2000/svg"><path d="m13.293 29.707-7.5098-7.50973.32227-.64454a4.46851 4.46851 0 0 1 3.12939-2.60058 3.93035 3.93035 0 0 1 3.47214 1.34085l.293.293v-9.586a3.0021 3.0021 0 0 1 3.49658-2.96 3.08447 3.08447 0 0 1 2.50342 3.06742v6.13867l4.6499 1.32813a2.99134 2.99134 0 0 1 2.15723 3.21578l-.81348 7.32031-1.9873-.2207.81347-7.32031a.99676.99676 0 0 0 -.71923-1.07129l-5.19434-1.48438a1.2542 1.2542 0 0 1 -.90625-1.20211v-6.7041a1.08387 1.08387 0 0 0 -.82471-1.09277 1.00089 1.00089 0 0 0 -1.17529.98535v11.39648a1.24994 1.24994 0 0 1 -2.13281.88477l-1.57419-1.57425a2.04911 2.04911 0 0 0 -1.73779-.78027 2.1509 2.1509 0 0 0 -1.29493.91992l6.44672 6.44635zm5.16064-12.61719.00342.001z"/><path d="m8.4082 15.51953a8.286 8.286 0 0 1 -1.4082-4.51953 9 9 0 0 1 18 0 8.2346 8.2346 0 0 1 -1.35693 4.44141l-1.69043-1.06836a6.27286 6.27286 0 0 0 1.04736-3.37305 7 7 0 0 0 -14 0 6.321 6.321 0 0 0 1.09082 3.4375z"/></svg>