<svg viewBox="0 0 32 32" xmlns="http://www.w3.org/2000/svg"><path d="m15 26h2v2h-2z"/><path d="m15 30h2v2h-2z"/><path d="m22 4h-3v2h3a1.00067 1.00067 0 0 1 1 1v5h-14v-5a1.00067 1.00067 0 0 1 1-1h3v-2h-3a3.00328 3.00328 0 0 0 -3 3v9.76367a2.98517 2.98517 0 0 0 1.6582 2.6836l4.3418 2.17089v2.38184h6v-2.38184l4.3418-2.17089a2.98517 2.98517 0 0 0 1.6582-2.6836v-9.76367a3.00328 3.00328 0 0 0 -3-3zm.44727 13.6582-5.44727 2.72364v1.61816h-2v-1.61816l-5.44727-2.72364a.9936.9936 0 0 1 -.55273-.89453v-2.76367h14v2.76367a.9936.9936 0 0 1 -.55273.89453z"/><path d="m15 0v8h2v-6h13v30h2v-32z"/></svg>