<svg xmlns="http://www.w3.org/2000/svg" xmlns:xlink="http://www.w3.org/1999/xlink" width="72px" height="70px" viewBox="0 0 72 70" version="1.1">
    <defs>
        <polygon id="path-1" points="2.33060099e-15 69.244 71.931 69.244 71.931 0 2.33060099e-15 0"/>
    </defs>
    <g id="" stroke="none" stroke-width="1" fill="none" fill-rule="evenodd">
        <g id="" transform="translate(-684.000000, -796.000000)">
            <g id="" transform="translate(684.000000, 796.000000)">
                <g id="Group-20" transform="translate(0.000000, -0.000000)">
                    <path d="M5.9503,18.4649 C7.2243,18.4649 8.2583,19.4989 8.2583,20.7729 C8.2583,22.0469 7.2243,23.0809 5.9503,23.0809 C4.6763,23.0809 3.6423,22.0469 3.6423,20.7729 C3.6423,19.4989 4.6763,18.4649 5.9503,18.4649" id="Fill-1" fill="#0057B8"/>
                    <path d="M24.4153,4.616 C25.6893,4.616 26.7243,5.65 26.7243,6.924 C26.7243,8.198 25.6893,9.232 24.4153,9.232 C23.1413,9.232 22.1073,8.198 22.1073,6.924 C22.1073,5.65 23.1413,4.616 24.4153,4.616" id="Fill-3" fill="#0057B8"/>
                    <path d="M65.9623,2.3079 C67.2363,2.3079 68.2703,3.3419 68.2703,4.6159 C68.2703,5.8899 67.2363,6.9239 65.9623,6.9239 C64.6883,6.9239 63.6543,5.8899 63.6543,4.6159 C63.6543,3.3419 64.6883,2.3079 65.9623,2.3079" id="Fill-5" fill="#0057B8"/>
                    <path d="M65.9623,18.4649 C67.2363,18.4649 68.2703,19.4989 68.2703,20.7729 C68.2703,22.0469 67.2363,23.0809 65.9623,23.0809 C64.6883,23.0809 63.6543,22.0469 63.6543,20.7729 C63.6543,19.4989 64.6883,18.4649 65.9623,18.4649" id="Fill-7" fill="#0057B8"/>
                    <path d="M47.4973,4.616 C48.7713,4.616 49.8053,5.65 49.8053,6.924 C49.8053,8.198 48.7713,9.232 47.4973,9.232 C46.2233,9.232 45.1893,8.198 45.1893,6.924 C45.1893,5.65 46.2233,4.616 47.4973,4.616" id="Fill-9" fill="#0057B8"/>
                    <path d="M5.9503,2.3079 C7.2243,2.3079 8.2583,3.3419 8.2583,4.6159 C8.2583,5.8899 7.2243,6.9239 5.9503,6.9239 C4.6763,6.9239 3.6423,5.8899 3.6423,4.6159 C3.6423,3.3419 4.6763,2.3079 5.9503,2.3079" id="Fill-11" fill="#0057B8"/>
                    <path d="M35.9553,20.6874 C32.0843,20.6874 28.9453,23.8264 28.9453,27.6974 C28.9453,31.5674 32.0843,34.7074 35.9553,34.7074 C39.8263,34.7074 42.9653,31.5674 42.9653,27.6974 C42.9603,23.8284 39.8263,20.6924 35.9553,20.6874 M35.9553,39.1524 C29.6293,39.1524 24.5003,34.0234 24.5003,27.6974 C24.5003,21.3704 29.6293,16.2424 35.9553,16.2424 C42.2823,16.2424 47.4103,21.3704 47.4103,27.6974 C47.4043,34.0214 42.2793,39.1454 35.9553,39.1524" id="Fill-13" fill="#0057B8"/>
                    <mask id="mask-2" fill="white">
                        <use xlink:href="#path-1"/>
                    </mask>
                    <g id="Clip-16"/>
                    <polygon id="" fill="#0057B8" mask="url(#mask-2)" points="33.648 11.541 38.264 11.541 38.264 0 33.648 0"/>
                    <polygon id="" fill="#0057B8" mask="url(#mask-2)" points="9.8423 11.7733 13.1053 8.5073 21.2673 16.6663 18.0033 19.9323"/>
                    <polygon id="" fill="#0057B8" mask="url(#mask-2)" points="50.6453 16.6666 58.8043 8.5076 62.0683 11.7706 53.9083 19.9306"/>
                    <path d="M52.1123,69.244 L47.4963,69.244 L47.4963,59.19 C47.4963,55.859 48.9343,52.692 51.4383,50.502 L66.7503,37.103 C67.5423,36.185 67.4943,34.809 66.6373,33.948 C65.7233,33.075 64.2883,33.075 63.3743,33.948 L49.7603,45.237 C47.6273,47.331 44.7513,48.494 41.7623,48.471 L30.1503,48.471 C27.0903,48.478 24.1513,47.261 21.9913,45.089 L8.6963,34.091 C7.8773,33.11 6.4163,32.979 5.4353,33.798 C4.4513,34.62 4.3203,36.081 5.1413,37.062 C5.1833,37.112 5.2293,37.163 5.2753,37.209 L20.4743,50.502 C22.9793,52.695 24.4143,55.861 24.4143,59.19 L24.4143,69.244 L19.7983,69.244 L19.7983,59.19 C19.7983,57.193 18.9373,55.294 17.4373,53.978 L2.1223,40.579 C-0.6427,37.906 -0.7167,33.5 1.9563,30.735 C1.9753,30.717 1.9913,30.7 2.0093,30.682 C4.7493,28.067 9.0613,28.067 11.8003,30.682 L25.0953,41.68 C26.4233,43.049 28.2443,43.831 30.1503,43.854 L41.7623,43.854 C43.5973,43.85 45.3563,43.12 46.6583,41.826 L60.2693,30.536 C61.5393,29.311 63.2403,28.635 65.0053,28.655 C68.8283,28.653 71.9303,31.753 71.9303,35.575 C71.9303,37.412 71.2003,39.174 69.9013,40.473 L54.4763,53.978 C52.9733,55.291 52.1123,57.191 52.1123,59.19 L52.1123,69.244 Z" id="Fill-19" fill="#0057B8" mask="url(#mask-2)"/>
                </g>
                <polygon id="" fill="#FE5000" points="50.6453 16.6666 58.8043 8.5076 62.0683 11.7706 53.9083 19.9306"/>
                <polygon id="" fill="#00D084" points="33.648 11.541 38.264 11.541 38.264 0 33.648 0"/>
                <polygon id="" fill="#FFD158" points="9.8423 11.7733 13.1053 8.5073 21.2673 16.6663 18.0033 19.9323"/>
            </g>
        </g>
    </g>
</svg>
