<svg viewBox="0 0 32 32" xmlns="http://www.w3.org/2000/svg"><path d="m11 24h10v2h-10z"/><path d="m12 27v2h1a3 3 0 0 0 6 0h1v-2zm4 3a1.001 1.001 0 0 1 -1-1h2a1.001 1.001 0 0 1 -1 1z"/><path d="m21 23h-10v-3.31348a1.0083 1.0083 0 0 0 -.21143-.61523l-3.269-4.20264a9.00531 9.00531 0 0 1 -1.63676-7.74609 8.79542 8.79542 0 0 1 4.94434-5.94434 12.77441 12.77441 0 0 1 5.17285-1.17822 12.77441 12.77441 0 0 1 5.17285 1.17822 8.79542 8.79542 0 0 1 4.94434 5.94434 9.00531 9.00531 0 0 1 -1.63672 7.74609l-3.26953 4.20362a1.006 1.006 0 0 0 -.21094.61425zm-8-2h6v-1.31348a3.018 3.018 0 0 1 .63135-1.84179l3.27-4.20362a7.01683 7.01683 0 0 0 1.27492-6.03611 6.80673 6.80673 0 0 0 -3.82373-4.60254 10.7692 10.7692 0 0 0 -4.35254-1.00246 10.7692 10.7692 0 0 0 -4.35254 1.00244 6.80673 6.80673 0 0 0 -3.82373 4.60256 7.01683 7.01683 0 0 0 1.2749 6.03613l3.26953 4.20264a3.02026 3.02026 0 0 1 .63184 1.84275z"/></svg>