<svg id="Layer_5" data-name="Layer 5" xmlns="http://www.w3.org/2000/svg" viewBox="0 0 32 32"><path d="M28.83008,9.0459a4.48508,4.48508,0,0,0-6.02637-1.46582c-.10059.05127-.20019.104-.29687.15869a7.50071,7.50071,0,0,0-3.55274,5.22559c-.08453.40411-.12976.81-.18109,1.21551A5.06205,5.06205,0,0,1,17,10H15a5.0621,5.0621,0,0,1-1.77179,4.17877c-.05139-.40747-.097-.81531-.18182-1.22125A7.41218,7.41218,0,0,0,9.46777,7.708l-.00293-.00147A4.55878,4.55878,0,0,0,3.16992,9.03809C.98,12.29834,0,19.64355,0,25.47656a3.19975,3.19975,0,0,0,2.81494,3.499A4.9263,4.9263,0,0,0,3.30811,29,8.79758,8.79758,0,0,0,7.519,27.6123c1.94239-1.11132,4.43994-2.959,5.30616-5.45312a9.05521,9.05521,0,0,0,.40185-2.22852c.09894-1.126.17578-2.29193.166-3.47186A6.52373,6.52373,0,0,0,16,13.9624a6.524,6.524,0,0,0,2.60754,2.49683c-.01,1.18127.06684,2.348.1659,3.47436a9.02345,9.02345,0,0,0,.40136,2.22754c.86719,2.49512,3.36426,4.3418,5.30665,5.45215A8.80739,8.80739,0,0,0,28.69238,29a4.914,4.914,0,0,0,.49219-.02441A3.1994,3.1994,0,0,0,32,25.47754C32,19.64648,31.01953,12.30469,28.83008,9.0459Zm-17.59522,10.709A7.29854,7.29854,0,0,1,10.936,21.502c-.51758,1.49024-2.0835,3.043-4.41016,4.374a6.465,6.465,0,0,1-3.50977,1.10937C2.3418,26.918,2,26.41016,2,25.47656c0-6.541,1.16357-12.84228,2.83008-15.32324A2.34142,2.34142,0,0,1,6.84521,9.001a3.66,3.66,0,0,1,1.66749.46435,5.58508,5.58508,0,0,1,2.57568,3.90186A22.05934,22.05934,0,0,1,11.23486,19.75488Zm17.74756,7.23047a6.50632,6.50632,0,0,1-3.50879-1.1084c-2.32617-1.3291-3.8916-2.88183-4.41015-4.373a7.2678,7.2678,0,0,1-.29786-1.74512,22.057,22.057,0,0,1,.14551-6.38477A5.49205,5.49205,0,0,1,23.49121,9.48l.00293-.00195c.06934-.03907.14063-.07666.21-.11231A3.16147,3.16147,0,0,1,25.12012,9a2.42276,2.42276,0,0,1,2.0498,1.16113C28.83594,12.64111,30,18.93945,30,25.47754,30,26.41016,29.6582,26.918,28.98242,26.98535Z"/><rect x="15" y="2" width="2" height="2"/><rect x="15" y="6" width="2" height="2"/></svg>