<svg viewBox="0 0 32 32" xmlns="http://www.w3.org/2000/svg"><path d="m4.34319 27.65674a7.99988 7.99988 0 0 0 11.31372 0l12-12a8 8 0 0 0 -11.31372-11.31374l-12 12a8 8 0 0 0 0 11.31374zm13.41418-21.89948a6 6 0 0 1 8.48535 8.48529l-5.01416 5.01416-8.48535-8.48529zm-12 12 5.57178-5.57177 8.48535 8.48529-5.57178 5.57177a6 6 0 0 1 -8.48535-8.48529z"/><path d="m6.17773 23.73926a3.00245 3.00245 0 0 1 0-4.24219l2.16016-2.15918 1.41411 1.41411-2.1602 2.15913a1.00141 1.00141 0 0 0 0 1.41407z"/><path d="m9.95616 15.13292h1.99979v1.99979h-1.99979z" transform="matrix(.70710678 -.70710678 .70710678 .70710678 -8.19867 12.47229)"/></svg>