<svg xmlns="http://www.w3.org/2000/svg" viewBox="0 0 32 32"><title>mic-off</title><rect x="15.00011" y="0.44365" width="1.99979" height="31.1127" transform="translate(-6.62742 16) rotate(-45)"/><path d="M24.86206,20.61816A9.92816,9.92816,0,0,0,26,16V14H24v2a7.9548,7.9548,0,0,1-.6347,3.1214Z"/><path d="M23.73309,22.31732l-1.42071-1.42071A7.9906,7.9906,0,0,1,8,16V14H6v2a10.01353,10.01353,0,0,0,9,9.94928V28H11v2H21V28H17V25.94928A9.98594,9.98594,0,0,0,23.73309,22.31732Z"/><path d="M12.0224,7.7785A3.99165,3.99165,0,0,1,20,8v7.7561l1.7912,1.7912A5.991,5.991,0,0,0,22,16V8A5.99766,5.99766,0,0,0,10.32062,6.07672Z"/><path d="M19.43378,18.018A3.98739,3.98739,0,0,1,12,16V10.58423l-2-2V16a5.99614,5.99614,0,0,0,10.88763,3.47186Z"/></svg>