<svg viewBox="0 0 32 32" xmlns="http://www.w3.org/2000/svg"><path d="m18.23 1.47h2v4h-2z" transform="matrix(.5 -.8660254 .8660254 .5 6.61 18.39)"/><path d="m7.23 16.53h2v12h-2z" transform="matrix(.5 -.87 .87 .5 -15.39 18.39)"/><path d="m22.27 28a8 8 0 0 0 -.58-12.47 3.91 3.91 0 0 0 .31-1.53 4 4 0 0 0 -2.18-3.54l1.38-2.39-6.93-4-7 12.13 1.73 1-1 1.73 3.46 2 1-1.73 1.74 1 1.64-2.85a3.9 3.9 0 0 0 2.16.65 4 4 0 0 0 2.46-.87 6 6 0 0 1 -3.46 10.87h-9v-2.09l-2-1.15v5.24h21v-2zm-8.27-14a4 4 0 0 0 .44 1.78l-1 1.68-3.46-2 5.02-8.66 3.46 2-.7 1.2a4 4 0 0 0 -3.76 4zm4 2a2 2 0 1 1 2-2 2 2 0 0 1 -2 2z"/></svg>