<svg viewBox="0 0 32 32" xmlns="http://www.w3.org/2000/svg"><path d="m30 11v13h-25v2h27v-15z"/><path d="m7.0918 22h20.9082v-16h-28v16zm6.9082-13a5 5 0 1 1 -5 5 5.00588 5.00588 0 0 1 5-5zm12 1.56165c-.04254-.01862-.08624-.03467-.12811-.05445a4.98628 4.98628 0 0 1 -.51526-.28522c-.07739-.04852-.15814-.09216-.23261-.14471a4.999 4.999 0 0 1 -1.20129-1.20127c-.05255-.07447-.09619-.15522-.14471-.23261a4.98628 4.98628 0 0 1 -.28522-.51526c-.0198-.04189-.0358-.08559-.05445-.12813h2.56165zm-4.70312-2.56165c.01342.045.03393.08667.04821.13129.03406.10663.07605.20855.115.31286.07856.21033.16443.416.262.616.05273.10822.10711.2143.16516.31921.1076.19452.22564.38111.35064.5636.06147.08979.1186.1817.184.26831a7.01444 7.01444 0 0 0 .601.70014l.06567.06567a7.01444 7.01444 0 0 0 .70014.601c.08661.06543.17852.12256.26831.184.18249.125.36908.243.5636.35064.10491.058.211.11243.31921.16516.20007.09754.4057.18341.616.262.10431.03894.20623.08093.31286.115.04462.01428.08625.03479.13129.04821v7.29691h-8.41342a6.98 6.98 0 0 0 .00006-12zm-19.29688 0h8.41345a6.98 6.98 0 0 0 0 12h-3.71033c-.01342-.045-.03393-.08667-.04821-.13129-.03406-.10675-.07617-.20874-.11512-.31317-.07836-.2099-.16412-.41522-.26147-.61493-.053-.10876-.1076-.21539-.16595-.3208-.10737-.19409-.22529-.38025-.35-.56244-.06146-.08984-.11877-.18194-.18427-.26867a7.01444 7.01444 0 0 0 -.601-.70014l-.06567-.06567a7.01444 7.01444 0 0 0 -.70014-.601c-.08673-.0655-.17883-.12281-.26867-.18427-.18219-.12469-.36835-.24261-.56244-.35-.10541-.05835-.212-.113-.3208-.166-.19971-.09735-.405-.18311-.61493-.26147-.10443-.03895-.20642-.08106-.31317-.11512-.04461-.01422-.08628-.03473-.13128-.04815zm0 9.43835c.04254.01862.08624.03467.12811.05445a4.98628 4.98628 0 0 1 .51526.28522c.07739.04852.15814.09216.23261.14471a4.999 4.999 0 0 1 1.20129 1.20127c.05255.07447.09619.15522.14471.23261a4.98628 4.98628 0 0 1 .28522.51526c.01978.04187.03583.08557.05445.12811h-2.56165z"/></svg>