<svg viewBox="0 0 32 32" xmlns="http://www.w3.org/2000/svg"><path d="m10 13c-3.97559 0-8-1.374-8-4s4.02441-4 8-4 8 1.374 8 4-4.02441 4-8 4zm0-6c-3.72168 0-6 1.29492-6 2s2.27832 2 6 2 6-1.29492 6-2-2.27832-2-6-2z"/><path d="m16.06836 13.96814-.00171-.075a15.61038 15.61038 0 0 1 -6.06634 1.10686 13.21043 13.21043 0 0 1 -8.00007-2.22827l.00019 2.39886a16.318 16.318 0 0 0 7.99988 1.82941 20.2853 20.2853 0 0 0 3.53969-.30713 10.06451 10.06451 0 0 1 2.52836-2.72473z"/><path d="m10 13c-3.97559 0-8-1.374-8-4s4.02441-4 8-4 8 1.374 8 4-4.02441 4-8 4zm0-6c-3.72168 0-6 1.29492-6 2s2.27832 2 6 2 6-1.29492 6-2-2.27832-2-6-2z"/><path d="m22 30a8 8 0 1 1 8-8 8.00917 8.00917 0 0 1 -8 8zm0-14a6 6 0 1 0 6 6 6.00657 6.00657 0 0 0 -6-6z"/><path d="m12.52228 18.83368a18.72182 18.72182 0 0 1 -2.52197.16632 13.21015 13.21015 0 0 1 -8.00031-2.22845l.00043 2.399a16.31785 16.31785 0 0 0 7.99988 1.82945c.71154 0 1.39544-.04456 2.065-.10925a9.90642 9.90642 0 0 1 .45697-2.05707z"/><path d="m12.04474 22.8819a18.8852 18.8852 0 0 1 -2.04443.1181 13.21031 13.21031 0 0 1 -8-2.22821l.00006 2.3988a16.31875 16.31875 0 0 0 7.99994 1.82941 21.108 21.108 0 0 0 2.42-.14612 9.9258 9.9258 0 0 1 -.37557-1.97198z"/></svg>