<svg viewBox="0 0 24 24" xmlns="http://www.w3.org/2000/svg"><path d="m21.29688 12.65137a6.32652 6.32652 0 0 0 -8.54651-5.23537 4.52007 4.52007 0 0 0 -7.37337 5.03975 4.32468 4.32468 0 0 0 .956 8.54425h13.334a4.33351 4.33351 0 0 0 1.62989-8.34863zm-11.82618-4.65137a2.51345 2.51345 0 0 1 1.46271.48816 6.33246 6.33246 0 0 0 -1.09747 1.18176 4.32657 4.32657 0 0 0 -2.883.97742c-.00177-.03882-.01446-.07617-.01446-.11511a2.53482 2.53482 0 0 1 2.53222-2.53223zm10.1963 11h-13.334a2.33335 2.33335 0 0 1 -.05567-4.666l.94141.00586.16113-.80273a2.33527 2.33527 0 0 1 2.75879-1.82227l.71973.15137.3584-.6416a4.33227 4.33227 0 0 1 8.11721 2.07713l-.0039.917.80176.16211a2.333 2.333 0 0 1 -.46486 4.61913z"/><path d="m8 1h2v3h-2z"/><path d="m0 9h3v2h-3z"/><path d="m2.84288 3.55011h1.99979v3.00037h-1.99979z" transform="matrix(.70726954 -.70694398 .70694398 .70726954 -2.44538 4.195)"/><path d="m13.65739 3.34288h2.99968v1.99979h-2.99968z" transform="matrix(.70710678 -.70710678 .70710678 .70710678 1.36864 11.98975)"/></svg>