<svg viewBox="0 0 32 32" xmlns="http://www.w3.org/2000/svg"><path d="m26.72461 16.9082a8.21651 8.21651 0 0 0 -7.91016-7.9082 7.32094 7.32094 0 0 0 -1.24426.119 5.99246 5.99246 0 0 0 -10.09814 6.1983 5.776 5.776 0 0 0 -.62342 1.28717 5.61068 5.61068 0 0 0 -4.63476 5.67285 5.54485 5.54485 0 0 0 5.33398 5.72268h17.333a5.5447 5.5447 0 0 0 5.333-5.72266 5.742 5.742 0 0 0 -3.48924-5.36914zm-13.72461-7.9082a3.99179 3.99179 0 0 1 2.4342.83435 8.13469 8.13469 0 0 0 -3.20666 2.95565 4.99991 4.99991 0 0 0 -3.16553.87115 3.96211 3.96211 0 0 1 3.93799-4.66115zm11.88086 17h-17.33301a3.54875 3.54875 0 0 1 -3.334-3.72266 3.555 3.555 0 0 1 3.27734-3.7207l.96973.03711.15625-.84668a3.45674 3.45674 0 0 1 3.26367-2.96924 3.01324 3.01324 0 0 1 .66016.07373l.75586.16992.35351-.689a5.88134 5.88134 0 0 1 5.16408-3.33248c3.27149 0 5.93262 2.94092 5.93262 6.541l-.00391.91308.78516.17285a3.64956 3.64956 0 0 1 2.68555 3.65039 3.548 3.548 0 0 1 -3.33301 3.72268z"/><path d="m12 1h2v4h-2z"/><path d="m1 12h4v2h-4z"/><path d="m5.28233 3.78251h1.99979v3.99992h-1.99979z" transform="matrix(.70716787 -.70704569 .70704569 .70716787 -2.24883 6.13512)"/><path d="m18.42485 4.78258h3.99992v1.99979h-3.99992z" transform="matrix(.70710678 -.70710678 .70710678 .70710678 1.89346 16.13616)"/></svg>