<svg id="Layer_1" data-name="Layer 1" xmlns="http://www.w3.org/2000/svg" viewBox="0 0 32 32"><path d="M20,31H18V27.7998A3.86019,3.86019,0,0,0,14.09082,24H5.90918A3.86019,3.86019,0,0,0,2,27.7998V31H0V27.7998A5.86145,5.86145,0,0,1,5.90918,22h8.18164A5.86145,5.86145,0,0,1,20,27.7998Z"/><path d="M10,20a6,6,0,1,1,6-6A6.00657,6.00657,0,0,1,10,20Zm0-10a4,4,0,1,0,4,4A4.00427,4.00427,0,0,0,10,10Z"/><path d="M32,25H30V21.7998A3.86019,3.86019,0,0,0,26.09082,18H19V16h7.09082A5.86145,5.86145,0,0,1,32,21.7998Z"/><path d="M23,14a6,6,0,1,1,6-6A6.00657,6.00657,0,0,1,23,14ZM23,4a4,4,0,1,0,4,4A4.00427,4.00427,0,0,0,23,4Z"/></svg>