<svg viewBox="0 0 32 32" xmlns="http://www.w3.org/2000/svg"><path d="m32 28h-2v-4a5.00588 5.00588 0 0 0 -5-5h-8v-2h8a7.00848 7.00848 0 0 1 7 7z"/><path d="m20 15a7 7 0 1 1 7-7 7.00818 7.00818 0 0 1 -7 7zm0-12a5 5 0 1 0 5 5 5.00588 5.00588 0 0 0 -5-5z"/><path d="m17.001 32h-2v-2.72754a3.09456 3.09456 0 0 0 -3.09082-3.09082h-6.81838a3.09456 3.09456 0 0 0 -3.0908 3.09082v2.72754h-2v-2.72754a5.09716 5.09716 0 0 1 5.0908-5.09082h6.81836a5.09716 5.09716 0 0 1 5.09084 5.09082z"/><path d="m8.501 23a5.09082 5.09082 0 1 1 5.09082-5.09082 5.09716 5.09716 0 0 1 -5.09082 5.09082zm0-8.18164a3.09082 3.09082 0 1 0 3.09082 3.09082 3.09456 3.09456 0 0 0 -3.09082-3.09082z"/></svg>