<svg viewBox="0 0 32 32" xmlns="http://www.w3.org/2000/svg"><path d="m12 5a5 5 0 1 1 -5 5 5.00566 5.00566 0 0 1 5-5m0-2a7 7 0 1 0 7 7 7 7 0 0 0 -7-7z"/><path d="m24 30h-2v-4a5.00588 5.00588 0 0 0 -5-5h-10a5.00588 5.00588 0 0 0 -5 5v4h-2v-4a7.00848 7.00848 0 0 1 7-7h10a7.00848 7.00848 0 0 1 7 7z"/><path d="m26.896 21.86426-4.21338-4.21387a3.044 3.044 0 0 1 0-4.30078 3.111 3.111 0 0 1 4.21338-.085 3.1151 3.1151 0 0 1 4.21338.085 3.04076 3.04076 0 0 1 -.00049 4.30078zm-2.18018-5.00879 2.18018 2.18066 2.79882-2.7998a1.04089 1.04089 0 0 0 0-1.47266 1.0641 1.0641 0 0 0 -1.47265 0l-1.32617 1.3252-1.32569-1.3252a1.06471 1.06471 0 0 0 -1.47314 0 1.04252 1.04252 0 0 0 -.00049 1.47266z"/></svg>