<svg viewBox="0 0 32 32" xmlns="http://www.w3.org/2000/svg"><path d="m16 4.98214a5 5 0 1 1 -5 5 5.00567 5.00567 0 0 1 5-5m0-2a7 7 0 1 0 7 7 7 7 0 0 0 -7-7z"/><path d="m21 18.98242h-10a7.00849 7.00849 0 0 0 -7 7v4h2v-4a5.00589 5.00589 0 0 1 5-5v2.15958a3.99552 3.99552 0 0 0 -3 3.858v3h2v-3a2 2 0 0 1 4 0v3h2v-3a3.99552 3.99552 0 0 0 -3-3.858v-2.15958h7.5v4.22864a2.5 2.5 0 1 0 2 0v-3.97333a4.99021 4.99021 0 0 1 3.5 4.74469v4h2v-4a7.00849 7.00849 0 0 0 -7-7zm.5 9.51758a1 1 0 1 1 1-1 1 1 0 0 1 -1 1z"/></svg>