<svg viewBox="0 0 32 32" xmlns="http://www.w3.org/2000/svg"><path d="m31 1.9834h-13.998l.0019-.98145a.99975.99975 0 0 0 -.99804-1.00195.97351.97351 0 0 0 -1.00195.99805l-.002.98535h-14.00191a1 1 0 0 0 0 2h1v16.0166h28v-16.0166h1a1 1 0 0 0 0-2zm-3 16.0166h-24v-14h24z"/><path d="m6 6h8v2h-8z"/><path d="m6 10h20v2h-20z"/><path d="m6 14h14v2h-14z"/><path d="m10.12311 22-3.05182 7.62891a1.0003 1.0003 0 0 0 .55762 1.2998 1.00046 1.00046 0 0 0 1.2998-.55762l3.34876-8.37109z"/><path d="m15 22v9a1 1 0 0 0 2 0v-9z"/><path d="m21.87689 22h-2.15436l3.34876 8.37109a1.00011 1.00011 0 1 0 1.85742-.74218z"/></svg>