<svg viewBox="0 0 32 32" xmlns="http://www.w3.org/2000/svg"><path d="m15 23h2v2h-2z"/><path d="m16 30a14 14 0 1 1 14-14 14.01572 14.01572 0 0 1 -14 14zm0-26a12 12 0 1 0 12 12 12.01375 12.01375 0 0 0 -12-12z"/><path d="m17 20h-2v-2.206a3.11939 3.11939 0 0 1 2.00879-2.96778 3.00057 3.00057 0 1 0 -4.00879-2.82622h-2a4.97888 4.97888 0 0 1 1.88428-3.91113 5.03244 5.03244 0 0 1 4.28072-.95655 4.94846 4.94846 0 0 1 3.70215 3.70215 5.03474 5.03474 0 0 1 -3.18649 5.87553 1.13419 1.13419 0 0 0 -.68066 1.084z"/></svg>