<svg viewBox="0 0 32 32" xmlns="http://www.w3.org/2000/svg"><path d="m16 19a4 4 0 1 1 4-4 4.00427 4.00427 0 0 1 -4 4zm0-6a2 2 0 1 0 2 2 2.002 2.002 0 0 0 -2-2z"/><path d="m24.6615 4.00016a14.07991 14.07991 0 0 1 5.19502 8.99984h-6.1111a8.05437 8.05437 0 0 0 -2.13991-3.70669l3.056-5.29315m-.65883-2.85888-5.00083 8.66172a5.9976 5.9976 0 0 1 2.99948 5.197h10a15.99368 15.99368 0 0 0 -7.99866-13.85872z"/><path d="m18.14218 22.70542 3.05563 5.2925a13.97356 13.97356 0 0 1 -10.39288-.00015l3.05524-5.29183a7.978 7.978 0 0 0 4.282-.00052m-5.14084-2.51194-5 8.66025a15.99257 15.99257 0 0 0 16.00132.00231l-5.00084-8.66169a5.99721 5.99721 0 0 1 -6.00048-.00087z"/><path d="m7.34168 4.00105 3.05556 5.29238a8.05439 8.05439 0 0 0 -2.14014 3.70657h-6.112a14.07994 14.07994 0 0 1 5.19658-8.99895m.65965-2.85745a15.99362 15.99362 0 0 0 -8.00266 13.8564h10.00166a5.99765 5.99765 0 0 1 3.001-5.19614l-5-8.66025z"/></svg>