<svg viewBox="0 0 32 32" xmlns="http://www.w3.org/2000/svg"><path d="m24.667 22h-17.334a5.54457 5.54457 0 0 1 -5.333-5.72217 5.61009 5.61009 0 0 1 4.63477-5.67334 5.36764 5.36764 0 0 1 5.3789-3.81449 7.79844 7.79844 0 0 1 6.58594-3.79 8.21667 8.21667 0 0 1 7.91113 7.9082 5.74217 5.74217 0 0 1 3.48926 5.36963 5.54457 5.54457 0 0 1 -5.333 5.72217zm-17.3877-9.44385a3.55488 3.55488 0 0 0 -3.2793 3.72168 3.54785 3.54785 0 0 0 3.333 3.72217h17.334a3.54785 3.54785 0 0 0 3.333-3.72217 3.64932 3.64932 0 0 0 -2.68555-3.65083l-.78515-.17285.0039-.91357c0-3.59966-2.66211-6.54058-5.93359-6.54058a5.87881 5.87881 0 0 0 -5.16309 3.33252l-.35351.689-.75586-.16992a3.01317 3.01317 0 0 0 -.66016-.07373 3.45673 3.45673 0 0 0 -3.26367 2.96875l-.15332.83248z"/><path d="m6 24h2v4h-2z"/><path d="m18 24h2v4h-2z"/><path d="m12 26.02539h2v3.97461h-2z"/><path d="m24 26.02539h2v3.97461h-2z"/></svg>