<svg viewBox="0 0 32 32" xmlns="http://www.w3.org/2000/svg"><path d="m29.21191 19.46777-1.50191-2.62646-1.73633.99267 1.53516 2.67969a2.88413 2.88413 0 0 1 .13379 2.99707 2.98325 2.98325 0 0 1 -2.6709 1.58008h-8.24972l2.529-2.49414-1.4043-1.42383-4.9873 4.918 4.9873 4.91895 1.4043-1.42383-2.5293-2.49512h8.25a4.95458 4.95458 0 0 0 4.43162-2.63185 4.82536 4.82536 0 0 0 -.19141-4.99123z"/><path d="m8.48547 14.56476.96375 3.46649 1.92676-.53516-1.86133-6.69482-6.77588 1.83252.52246 1.93066 3.45532-.93438-3.30639 5.784a4.85533 4.85533 0 0 0 -.2251 5.04492 4.95532 4.95532 0 0 0 4.43213 2.63184h2.645v-2h-2.645a2.9851 2.9851 0 0 1 -2.67139-1.58009 2.91821 2.91821 0 0 1 .16748-3.05074z"/><path d="m16.29443 4a2.99734 2.99734 0 0 1 2.56983 1.40576l4.08774 7.14588-3.36115-.88025-.50585 1.93461 6.79 1.77832 1.80762-6.7085-1.93162-.52055-.9632 3.57746-4.2038-7.34748a5.04947 5.04947 0 0 0 -8.5957.02735l-2.19094 3.83008 1.73633.99316 2.17431-3.80273a3.01072 3.01072 0 0 1 2.58643-1.43311z"/></svg>