<svg viewBox="0 0 32 32" xmlns="http://www.w3.org/2000/svg"><path d="m29.12134 24.87866-5.06885-5.06885a13.05467 13.05467 0 0 1 -1.191 1.63739l4.84564 4.84571a1 1 0 1 1 -1.41418 1.41418l-4.84571-4.8457a13.05511 13.05511 0 0 1 -1.63732 1.1911l5.06878 5.06879a3 3 0 0 0 4.24268-4.24262z"/><path d="m13 2a11 11 0 1 0 11 11 11.01245 11.01245 0 0 0 -11-11zm-4.88269 18.54968a2.205 2.205 0 0 1 2.11902-1.54968h5.39453a2.423 2.423 0 0 1 2.23663 1.559 8.9427 8.9427 0 0 1 -9.75018-.00928zm11.33624-1.29028a4.42551 4.42551 0 0 0 -3.82269-2.2594h-5.39453a4.12536 4.12536 0 0 0 -3.71333 2.23352 8.99923 8.99923 0 1 1 12.9306.02588z"/><path d="m13 15a4.5 4.5 0 1 1 4.5-4.5 4.50491 4.50491 0 0 1 -4.5 4.5zm0-7a2.5 2.5 0 1 0 2.5 2.5 2.50231 2.50231 0 0 0 -2.5-2.5z"/></svg>