<svg id="power" xmlns="http://www.w3.org/2000/svg" viewBox="0 0 32 32"><title>settings</title><path d="M17.9823,4l.25232,1.89234.1534,1.15044,1.07495.43761a9.18189,9.18189,0,0,1,2.17518,1.26275l.91676.71357,1.074-.4428,1.77224-.73065,1.98231,3.43348L25.86356,12.887l-.91851.70722.15711,1.14854A9.19757,9.19757,0,0,1,25.2,16a9.19757,9.19757,0,0,1-.09782,1.25722L24.945,18.40576l.91851.70722,1.51992,1.17028-1.98231,3.43348-1.77224-.73065-1.074-.4428-.91676.71357A9.18189,9.18189,0,0,1,19.463,24.51961l-1.07495.43761-.1534,1.15044L17.9823,28H14.01767l-.25233-1.89234-.1534-1.15051-1.07505-.43758a9.17982,9.17982,0,0,1-2.1751-1.26271L9.445,22.54329l-1.074.4428-1.77217.73063L4.61655,20.28328l1.51988-1.17023.91852-.70721-.15709-1.14853A9.20019,9.20019,0,0,1,6.8,16a9.20019,9.20019,0,0,1,.09787-1.25731L7.055,13.59416,6.13643,12.887,4.61655,11.71672,6.59884,8.28328,8.371,9.01391l1.074.4428.91675-.71357a9.17982,9.17982,0,0,1,2.1751-1.26271l1.07505-.43758.1534-1.15051L14.01767,4H17.9823m1.751-2H12.26664L11.7829,5.628A11.17123,11.17123,0,0,0,9.13334,7.16489l-3.391-1.39806L2.009,12.23317,4.9163,14.47165A11.24037,11.24037,0,0,0,4.8,16a11.24037,11.24037,0,0,0,.11631,1.52835L2.009,19.76683l3.73333,6.46634,3.391-1.39806A11.17123,11.17123,0,0,0,11.7829,26.372L12.26664,30h7.46667l.48376-3.628a11.1736,11.1736,0,0,0,2.64955-1.53689l3.39108,1.39806L29.991,19.76683l-2.90733-2.23854A11.23716,11.23716,0,0,0,27.2,16a11.23716,11.23716,0,0,0-.11627-1.52829L29.991,12.23317,26.2577,5.76683,22.86662,7.16489A11.1736,11.1736,0,0,0,20.21707,5.628L19.73331,2Z"/><path d="M16,12a4,4,0,1,1-4,4,4.00453,4.00453,0,0,1,4-4m0-2a6,6,0,1,0,6,6,6,6,0,0,0-6-6Z"/></svg>