<svg id="power" xmlns="http://www.w3.org/2000/svg" viewBox="0 0 24 24"><title>settings_24px</title><path d="M12.91563,4l.11411.85578.1534,1.15044,1.075.4376a5.98668,5.98668,0,0,1,1.41814.82363L16.593,7.981l1.074-.44281.80336-.3312L19.386,8.793l-.68925.5307-.91851.70722.15711,1.14853A6.02228,6.02228,0,0,1,18,12a6.02228,6.02228,0,0,1-.0646.82056l-.15711,1.14853.91851.70722.68925.5307-.91565,1.586-.80336-.3312L16.593,16.019l-.91675.71359a5.98668,5.98668,0,0,1-1.41814.82363l-1.075.4376-.1534,1.15044L12.91563,20H11.08435l-.1141-.85576-.15342-1.15052-1.075-.43758a5.98521,5.98521,0,0,1-1.41806-.82359L7.407,16.019l-1.07405.44281L5.5296,16.793,4.614,15.207l.68923-.53067.91851-.70721-.1571-1.14853A6.02465,6.02465,0,0,1,6,12a6.02465,6.02465,0,0,1,.06464-.82063l.1571-1.14853-.91851-.70721L4.614,8.793,5.5296,7.207l.80332.33119L7.407,7.981l.91675-.71359a5.98521,5.98521,0,0,1,1.41806-.82359l1.075-.43758.15342-1.15052L11.08435,4h1.83128m1.751-2H9.33331L8.98778,4.59143A7.97944,7.97944,0,0,0,7.09524,5.68921L4.67307,4.69059,2.00641,9.30941l2.07666,1.59892A8.02755,8.02755,0,0,0,4,12a8.02755,8.02755,0,0,0,.08309,1.09167L2.00641,14.69059l2.66666,4.61882,2.42217-.99862a7.97944,7.97944,0,0,0,1.89254,1.09778L9.33331,22h5.33333l.34555-2.59143a7.98074,7.98074,0,0,0,1.89253-1.09778l2.4222.99862,2.66667-4.61882-2.07666-1.599A8.02648,8.02648,0,0,0,20,12a8.02648,8.02648,0,0,0-.08305-1.09163l2.07666-1.599L19.32692,4.69059l-2.4222.99862a7.98074,7.98074,0,0,0-1.89253-1.09778L14.66664,2Z"/><path d="M12,10.19048A1.80952,1.80952,0,1,1,10.19048,12,1.81156,1.81156,0,0,1,12,10.19048m0-2A3.80952,3.80952,0,1,0,15.80951,12,3.80952,3.80952,0,0,0,12,8.19048Z"/></svg>