<svg viewBox="0 0 32 32" xmlns="http://www.w3.org/2000/svg"><path d="m18.49707 7.58105a.99988.99988 0 0 0 0 1.72852 4.92552 4.92552 0 0 0 2.50293.69043 5 5 0 0 0 0-10 4.92552 4.92552 0 0 0 -2.50293.69043.99988.99988 0 0 0 0 1.72852 2.96774 2.96774 0 0 1 0 5.1621zm2.48535-5.58105h.01758a3 3 0 0 1 0 6h-.01758a4.931 4.931 0 0 0 0-6z"/><path d="m25 14h-10a3.00328 3.00328 0 0 0 -3 3v5h-10v-10h-2v18h2v-2h28v2h2v-9a7.00848 7.00848 0 0 0 -7-7zm-23 10h10v2h-10zm28 2h-16v-9a1.00067 1.00067 0 0 1 1-1h10a5.00588 5.00588 0 0 1 5 5z"/><path d="m7 20a3 3 0 1 0 -3-3 3.00328 3.00328 0 0 0 3 3zm0-4a1 1 0 1 1 -1 1 1.00067 1.00067 0 0 1 1-1z"/></svg>