<svg id="Layer_1" data-name="Layer 1" xmlns="http://www.w3.org/2000/svg" viewBox="0 0 32 32"><path d="M10.667,5h.92645l.7-3h7.41259l.7,3H21.333a5.66692,5.66692,0,0,1,1.15539.11914L21.294,0H10.70654L9.51208,5.119A5.67112,5.67112,0,0,1,10.667,5Z"/><path d="M21.333,27h-.92694l-.7,3H12.29346l-.7-3H10.667a5.67112,5.67112,0,0,1-1.15491-.119L10.70654,32H21.294l1.19445-5.11914A5.66692,5.66692,0,0,1,21.333,27Z"/><path d="M26,11H25v-.3335A3.67074,3.67074,0,0,0,21.333,7H10.6665A3.671,3.671,0,0,0,7,10.6665V21.333A3.67074,3.67074,0,0,0,10.6665,25H21.333A3.67053,3.67053,0,0,0,25,21.333V14h1ZM23,21.333A1.66919,1.66919,0,0,1,21.333,23H10.6665A1.66877,1.66877,0,0,1,9,21.333V10.6665A1.66835,1.66835,0,0,1,10.6665,9H21.333A1.66877,1.66877,0,0,1,23,10.6665Z"/></svg>