<svg viewBox="0 0 24 24" xmlns="http://www.w3.org/2000/svg"><path d="m18.667 15h-13.334a4.33373 4.33373 0 0 1 -.68848-8.6123 4.387 4.387 0 0 1 4.19142-2.71778 6.332 6.332 0 0 1 11.46094 2.98145 4.33351 4.33351 0 0 1 -1.62988 8.34863zm-13.38966-6.666a2.33335 2.33335 0 0 0 .05566 4.666h13.334a2.333 2.333 0 0 0 .46485-4.61914l-.80176-.16211.0039-.917a4.33227 4.33227 0 0 0 -8.11719-2.07714l-.3584.6416-.71973-.15137a2.33527 2.33527 0 0 0 -2.75879 1.82227l-.16113.80273z"/><circle cx="6" cy="18" r="1"/><circle cx="18" cy="21" r="1"/><circle cx="14" cy="18" r="1"/><circle cx="10" cy="21" r="1"/></svg>