<svg xmlns="http://www.w3.org/2000/svg" viewBox="0 0 32 32"><title>snow</title><circle cx="24.5" cy="28.5" r="0.5"/><path d="M24.5,30A1.5,1.5,0,1,1,26,28.5,1.50164,1.50164,0,0,1,24.5,30Zm0-2a.5.5,0,1,0,.5.5A.501.501,0,0,0,24.5,28Z"/><circle cx="18.5" cy="25.5" r="0.5"/><path d="M18.5,27A1.5,1.5,0,1,1,20,25.5,1.50164,1.50164,0,0,1,18.5,27Zm0-2a.5.5,0,1,0,.5.5A.501.501,0,0,0,18.5,25Z"/><circle cx="12.5" cy="28.5" r="0.5"/><path d="M12.5,30A1.5,1.5,0,1,1,14,28.5,1.50164,1.50164,0,0,1,12.5,30Zm0-2a.5.5,0,1,0,.5.5A.501.501,0,0,0,12.5,28Z"/><circle cx="6.5" cy="25.5" r="0.5"/><path d="M6.5,27A1.5,1.5,0,1,1,8,25.5,1.50164,1.50164,0,0,1,6.5,27Zm0-2a.5.5,0,1,0,.5.5A.501.501,0,0,0,6.5,25Z"/><path d="M24.667,22H7.333A5.54457,5.54457,0,0,1,2,16.27783a5.61009,5.61009,0,0,1,4.63477-5.67334A5.36451,5.36451,0,0,1,12.01367,6.79,7.79844,7.79844,0,0,1,18.59961,3a8.21667,8.21667,0,0,1,7.91113,7.9082A5.74217,5.74217,0,0,1,30,16.27783,5.54457,5.54457,0,0,1,24.667,22ZM7.2793,12.55615A3.55488,3.55488,0,0,0,4,16.27783,3.54785,3.54785,0,0,0,7.333,20H24.667A3.54785,3.54785,0,0,0,28,16.27783,3.64932,3.64932,0,0,0,25.31445,12.627l-.78515-.17285.0039-.91357C24.5332,7.94092,21.87109,5,18.59961,5a5.87881,5.87881,0,0,0-5.16309,3.33252l-.35351.689-.75586-.16992a3.01317,3.01317,0,0,0-.66016-.07373,3.45673,3.45673,0,0,0-3.26367,2.96875L8.25,12.5791Z"/></svg>