<svg viewBox="0 0 32 32" xmlns="http://www.w3.org/2000/svg"><path d="m31 6a4.9994 4.9994 0 1 0 1 9.898v-2.08327a2.96521 2.96521 0 0 1 -1 .18431 2.99964 2.99964 0 1 1 0-5.99928 2.96524 2.96524 0 0 1 1 .18434v-2.08334a5.02181 5.02181 0 0 0 -1-.10076z"/><path d="m1 6a5.02188 5.02188 0 0 0 -1 .10076v2.08334a2.96521 2.96521 0 0 1 1-.18431 2.99964 2.99964 0 1 1 0 5.99928 2.96521 2.96521 0 0 1 -1-.18431v2.08331a4.99953 4.99953 0 1 0 1-9.89807z"/><path d="m20.051 10.051-1.414 1.414 2.535 2.535h-10.344l2.535-2.535-1.414-1.414-4.949 4.949 4.949 4.949 1.414-1.414-2.535-2.535h10.344l-2.535 2.535 1.414 1.414 4.949-4.949z"/><path d="m32 18.04492h-4.63672a5.36994 5.36994 0 0 0 -5.36328 5.36426v2.59082h2v-2.59082a3.36732 3.36732 0 0 1 3.36328-3.36426h4.63672z"/><path d="m4.63623 18.04492h-4.63623v2h4.63623a3.36744 3.36744 0 0 1 3.36377 3.36426v2.59082h2v-2.59082a5.37 5.37 0 0 0 -5.36377-5.36426z"/></svg>