<svg id="Layer_1" data-name="Layer 1" xmlns="http://www.w3.org/2000/svg" viewBox="0 0 32 32"><path d="M28.92285,15.95508,27.667,11.59521A3.99552,3.99552,0,0,0,26,9.59949V6.5a3.48763,3.48763,0,0,0-5.534-2.83655,3.476,3.476,0,0,0-5.932,0,3.468,3.468,0,0,0-5.3548,1.785A3.45535,3.45535,0,0,0,7.5,5,3.50424,3.50424,0,0,0,4,8.5v9.375a9.013,9.013,0,0,0,1.186,4.46582l2.55029,4.46484A1.9968,1.9968,0,0,1,8,27.79688V30h2V27.79688a4.00346,4.00346,0,0,0-.52734-1.98438l-2.5503-4.46387A7.01,7.01,0,0,1,6,17.875V15.64893a3.44574,3.44574,0,0,0,4-.70722,3.47593,3.47593,0,0,0,5.60834-.86706A5.9782,5.9782,0,0,0,20,16h1v1.07129A7.01058,7.01058,0,0,0,15,24h2a5.00588,5.00588,0,0,1,5-5h1V14H20a4.00768,4.00768,0,0,1-3.87354-3H23.9209a1.9956,1.9956,0,0,1,1.84863,1.22314l1.25586,4.35938a3.99884,3.99884,0,0,1-.67676,3.97021L21.96582,24.6709A3.00762,3.00762,0,0,0,21,26.876V30h2V26.876a1.00946,1.00946,0,0,1,.32812-.74121l4.43067-4.16309.07422-.07715A5.95869,5.95869,0,0,0,28.92285,15.95508ZM9,12.5a1.5,1.5,0,0,1-3,0v-4a1.5,1.5,0,0,1,3,0ZM14,11v1.5a1.5,1.5,0,0,1-3,0v-6a1.5,1.5,0,0,1,3,0V11Zm2-2V5.5a1.5,1.5,0,0,1,3,0V9Zm5,0V6.5a1.5,1.5,0,0,1,3,0V9H21Z"/></svg>