<svg viewBox="0 0 32 32" xmlns="http://www.w3.org/2000/svg"><path d="m16 6.98473 2.19356 5.60135.46326 1.183 1.26769.08342 5.99582.39458-4.64778 3.92264-.95339.80464.30337 1.21011 1.47989 5.90311-5.02142-3.22598-1.081-.69448-1.081.69448-5.0214 3.22594 1.47989-5.90311.30337-1.21011-.95339-.80464-4.6478-3.92268 5.99582-.39458 1.26769-.08342.46326-1.183zm0-5.48473-4.05585 10.35678-10.94415.72022 8.4375 7.12108-2.70801 10.80192 9.27051-5.95572 9.27051 5.95572-2.708-10.80191 8.43749-7.12109-10.94415-.72023z"/></svg>