<svg viewBox="0 0 24 24" xmlns="http://www.w3.org/2000/svg"><path d="m12 6.86588 1.11261 2.83412.46391 1.18168 1.26676.08316 3.06749.20137-2.38636 2.00908-.95628.8051.30469 1.21235.75587 3.00766-2.54956-1.6339-1.07913-.69158-1.07913.69156-2.54956 1.6339.75587-3.00766.30469-1.21235-.95628-.8051-2.38636-2.00908 3.06749-.20137 1.26676-.08316.46391-1.18166zm0-5.473-2.97429 7.57624-8.02571.52688 6.1875 5.20926-1.98587 7.90188 6.79837-4.35677 6.79837 4.35677-1.98587-7.90189 6.1875-5.20925-8.02571-.52687-2.97429-7.57627z"/></svg>