<svg viewBox="0 0 32 32" xmlns="http://www.w3.org/2000/svg"><path d="m23.17158 25 2.82842 2.82842v1.17158h-20v-1.17158l2.82842-2.82842zm.82842-2h-16l-4 4v4h24v-4zm0-4h-16v2h16zm0-14a12.0458 12.0458 0 0 0 -1.33887.07947l1.91553 7.05823-.92285.46972-3.80469-3.835h-1.28612l-.03906.20215c-.15235.79-.81055 4.87988 1.2041 7.91406l.07421.11137h2.62988l-.42676-.42676a7.12887 7.12887 0 0 1 -1.80664-4.55957l3.06738 3.03516 3.66407-1.86328-2.23566-8.18555zm.64856-4v.00079h-.64856v-.00079l-.01575.00079h-.13983v.00708a15.99556 15.99556 0 0 0 -15.84442 15.99213h2a14.01589 14.01589 0 0 1 14-14h.64856l1.98694-2z"/></svg>