<svg viewBox="0 0 32 32" xmlns="http://www.w3.org/2000/svg"><path d="m16 24a8 8 0 1 1 8-8 8.00917 8.00917 0 0 1 -8 8zm0-14a6 6 0 1 0 6 6 6.00657 6.00657 0 0 0 -6-6z"/><path d="m15 1h2v5h-2z"/><path d="m15 26h2v5h-2z"/><path d="m1 15h5v2h-5z"/><path d="m26 15h5v2h-5z"/><path d="m6.16124 4.6614h1.99979v4.99947h-1.99979z" transform="matrix(.70710678 -.70710678 .70710678 .70710678 -2.96624 7.16113)"/><path d="m23.83897 22.33913h1.99979v4.99947h-1.99979z" transform="matrix(.70710678 -.70710678 .70710678 .70710678 -10.2886 24.83887)"/><path d="m4.6614 23.83897h4.99947v1.99979h-4.99947z" transform="matrix(.70710678 -.70710678 .70710678 .70710678 -15.46628 12.33882)"/><path d="m22.33913 6.16124h4.99947v1.99979h-4.99947z" transform="matrix(.70710678 -.70710678 .70710678 .70710678 2.21145 19.66118)"/></svg>