<svg viewBox="0 0 24 24" xmlns="http://www.w3.org/2000/svg"><path d="m12 18a6 6 0 1 1 6-6 6.00657 6.00657 0 0 1 -6 6zm0-10a4 4 0 1 0 4 4 4.004 4.004 0 0 0 -4-4z"/><path d="m11 0h2v4h-2z"/><path d="m11 20h2v4h-2z"/><path d="m0 11h4v2h-4z"/><path d="m20 11h4v2h-4z"/><path d="m3.92882 2.92892h1.99979v3.99957h-1.99979z" transform="matrix(.70710678 -.70710678 .70710678 .70710678 -2.04154 4.92871)"/><path d="m18.0714 17.0715h1.99979v3.99957h-1.99979z" transform="matrix(.70710678 -.70710678 .70710678 .70710678 -7.89959 19.07129)"/><path d="m2.92892 18.0714h3.99957v1.99979h-3.99957z" transform="matrix(.70710678 -.70710678 .70710678 .70710678 -12.04185 9.07098)"/><path d="m17.0715 3.92882h3.99957v1.99979h-3.99957z" transform="matrix(.70710678 -.70710678 .70710678 .70710678 2.10073 14.92902)"/></svg>