<svg viewBox="0 0 32 32" xmlns="http://www.w3.org/2000/svg"><path d="m28 22a4 4 0 0 0 -3.8 2.8 7.32 7.32 0 0 0 -4.2-1.8h-15.59l-2-2h-2.41v9h2v-6.59l1.59 1.59h9.41v5h9a3 3 0 0 0 2.63-1.86 4 4 0 1 0 3.37-6.14zm-6 6h-7v-3h5c.95 0 3 1 3 1.5 0 .8-.47 1.5-1 1.5zm6 0a2 2 0 1 1 2-2 2 2 0 0 1 -2 2z"/><path d="m13.64 20.23-2.64-2.23v-1c0-2.95 2.58-4 5-4s5 1.05 5 4v1l-2.64 2.2 1.28 1.54 3.36-2.74v-2a5.76 5.76 0 0 0 -4.71-5.73 4 4 0 1 0 -4.58 0 5.76 5.76 0 0 0 -4.71 5.73v2l3.36 2.8zm2.36-14.23a2 2 0 1 1 -2 2 2 2 0 0 1 2-2z"/></svg>