<svg id="Layer_1" data-name="Layer 1" xmlns="http://www.w3.org/2000/svg" viewBox="0 0 32 32"><path d="M6,16A9.924,9.924,0,0,1,17.57,6.13721L15.17188,8.53564l1.41406,1.41407L21.53516,5,16.58594.05029,15.17188,1.46436l2.69769,2.69805A11.98036,11.98036,0,0,0,8.20721,25.10919L9.622,23.6944A10.028,10.028,0,0,1,6,16Z"/><path d="M28,16a12.051,12.051,0,0,0-4.13129-9.03473L22.45245,8.38153A9.89668,9.89668,0,0,1,26,16a9.96465,9.96465,0,0,1-11.47125,9.8855l2.421-2.42066-1.41407-1.41406L10.58594,27l4.9497,4.94922,1.41407-1.41406-2.66284-2.66248A11.9716,11.9716,0,0,0,28,16Z"/></svg>