<svg viewBox="0 0 32 32" xmlns="http://www.w3.org/2000/svg"><path d="m23.83887.59033-1.41407 1.41406 1.41407 1.41407-2.12134 2.12133-2.12134-2.12133-1.41406 1.41406 1.41431 1.41431-.00025.00024 4.94971 4.94971-2.82855 2.82855-2.12116-2.12152-1.41406 1.41406 2.12115 2.12152-1.41418 1.41419-2.12152-2.12116-1.41406 1.41406 2.12148 2.12116-1.41462 1.41461-2.121-2.1217-1.41406 1.41406 2.121 2.1217-2.53552 2.53553h-4.24264v-4.24317l11.021-11.02051-1.41406-1.41406-11.60694 11.60645v5.6571l-3.9497 3.94935 1.41406 1.41406 3.94958-3.94922h5.6569l13.02121-13.02124.70727.70727 1.41406-1.41406-2.12133-2.12134 2.12133-2.12134 1.41407 1.41407 1.41406-1.41407zm.70727 7.77808-1.41455-1.41455 2.12134-2.12134 1.41455 1.41455z"/></svg>