<svg viewBox="0 0 32 32" xmlns="http://www.w3.org/2000/svg"><path d="m8.92094 18.5795h6.99925v1.99979h-6.99925z" transform="matrix(.70710678 -.70710678 .70710678 .70710678 -10.20682 14.51734)"/><circle cx="7.82422" cy="24.17563" r="1.00002"/><path d="m24.91764 5.66827-9.48535 4.48242a11.968 11.968 0 0 0 -2.6582 2.00391l-11.31345 11.3144a4.99947 4.99947 0 0 0 7.07036 7.07036l11.31437-11.31348a12.01794 12.01794 0 0 0 2.03418-2.7168l4.45214-9.42676 2.706-2.70593-1.41431-1.41388zm-22.043 23.457a2.99411 2.99411 0 0 1 -.57678-3.40489l3.98169 3.98168a2.99409 2.99409 0 0 1 -3.40491-.57679zm4.94922-.707-4.24217-4.24219 10.60645-10.60743 4.24316 4.24318zm12.27737-12.82127c-.12409.22328-.27607.42774-.41632.64033l-3.92481-3.92483c.195-.12891.38654-.27295.58429-.38349l7.0625-3.335z"/><path d="m31.15884.84111a.99963.99963 0 0 0 -1.4137-.00035l-.00036.00035-.70734.70734 1.41425 1.41388.70715-.70715a.99963.99963 0 0 0 .00041-1.41369z"/></svg>