<svg viewBox="0 0 24 24" xmlns="http://www.w3.org/2000/svg"><path d="m18.667 17v-2a2.333 2.333 0 0 0 .46485-4.61914l-.80176-.16211.0039-.92187a4.3323 4.3323 0 0 0 -8.11719-2.07227l-.3584.6416-.71973-.15137a2.33527 2.33527 0 0 0 -2.75879 1.82227l-.16113.80273-.94141-.00584a2.33335 2.33335 0 0 0 .05566 4.666h.667v2h-.667a4.33373 4.33373 0 0 1 -.68848-8.6123 4.37975 4.37975 0 0 1 4.19142-2.71778 6.332 6.332 0 0 1 11.46094 2.98145 4.33351 4.33351 0 0 1 -1.62988 8.34863z"/><path d="m9.734 22h2.332l4.201-7h-4l3-5h-2.333l-4.201 7h4z"/></svg>