<svg viewBox="0 0 32 32" xmlns="http://www.w3.org/2000/svg"><path d="m19.56 12.44a14.22 14.22 0 0 0 -8.42-4.44l-.66-.09-3.74 6.24 1.14 1.14a1 1 0 0 1 .29.71.94.94 0 0 1 -.28.69l-4.31 4.15a5.37 5.37 0 0 0 -.64 6.8l-2.65 2.65 1.42 1.42 2.64-2.64a5.35 5.35 0 0 0 6.81-.65l4.13-4.3a1 1 0 0 1 1.42 0l1.13 1.14 6.24-3.74-.08-.66a14.22 14.22 0 0 0 -4.44-8.42zm-1.44 10.27a3 3 0 0 0 -4.25 0l-4.14 4.29a3.36 3.36 0 0 1 -4.73-4.73l4.31-4.15a3 3 0 0 0 0-4.24l.3-.5a12.73 12.73 0 0 1 5.58 3.51 12.7 12.7 0 0 1 3.51 5.59l-.49.29zm2.29-1.32a14.84 14.84 0 0 0 -3.85-6 14.84 14.84 0 0 0 -5.95-3.85l.9-1.49a12.32 12.32 0 0 1 6.63 3.76 12.32 12.32 0 0 1 3.76 6.63z"/><path d="m9.07 19.93h4v2h-4z" transform="matrix(.70710678 -.70710678 .70710678 .70710678 -11.56 13.96)"/><path d="m18 6v2a6 6 0 0 1 6 6h2a8 8 0 0 0 -8-8z"/><path d="m18 2v2a10 10 0 0 1 10 10h2a12 12 0 0 0 -12-12z"/></svg>