<svg viewBox="0 0 32 32" xmlns="http://www.w3.org/2000/svg"><path d="m17 3.75v-1.75h-2v1.75a13.92 13.92 0 0 0 -13 13.58 1 1 0 0 0 1.71.73 5 5 0 0 1 3.61-1.51 5.08 5.08 0 0 1 3.68 1.52 1 1 0 0 0 1.43 0 5 5 0 0 1 2.57-1.42v10.18a1.17 1.17 0 0 1 -2.34 0h-2a3.17 3.17 0 1 0 6.34 0v-10.18a5 5 0 0 1 2.62 1.42 1 1 0 0 0 .72.31 1 1 0 0 0 .71-.31 5.08 5.08 0 0 1 3.63-1.52 5 5 0 0 1 3.61 1.51 1 1 0 0 0 1.1.21 1 1 0 0 0 .61-.94 13.92 13.92 0 0 0 -13-13.58zm7.68 10.8a7 7 0 0 0 -4.34 1.45 7.07 7.07 0 0 0 -8.68 0 7.09 7.09 0 0 0 -7.42-.79 12 12 0 0 1 23.52 0 7.06 7.06 0 0 0 -3.08-.66z"/></svg>