<svg viewBox="0 0 24 24" xmlns="http://www.w3.org/2000/svg"><path d="m13.05 2.07v-1.07h-2v1.07a11.09 11.09 0 0 0 -10.16 10.81 1 1 0 0 0 1.71.73 3.83 3.83 0 0 1 5.34 0 1 1 0 0 0 1.43 0 3.52 3.52 0 0 1 1.68-.94v7.63a.7.7 0 1 1 -1.39 0h-2a2.7 2.7 0 1 0 5.39 0v-7.62a3.49 3.49 0 0 1 1.67.94 1 1 0 0 0 .72.3 1 1 0 0 0 .71-.3 3.82 3.82 0 0 1 5.34 0 1 1 0 0 0 1.1.21 1 1 0 0 0 .61-.94 11.09 11.09 0 0 0 -10.15-10.82zm2.39 9.53a5.73 5.73 0 0 0 -6.78 0 5.89 5.89 0 0 0 -5.49-.72 9.17 9.17 0 0 1 17.75 0 5.87 5.87 0 0 0 -5.48.72z"/></svg>