<svg xmlns="http://www.w3.org/2000/svg" viewBox="0 0 32 32"><g id="Layer_1" data-name="Layer 1"><path d="M22.15234,11.91113,20.293,9.87891a1.00687,1.00687,0,0,1-.293-.707V8h1l1-1V3l-.68359-.94824-3-1L18,1H14l-.31641.05176-3,1L10,3V7l1,1h1V9.17188a1.03949,1.03949,0,0,1-.32422.73925L9.87891,11.87891A2.9815,2.9815,0,0,0,9,14V28a3.00328,3.00328,0,0,0,3,3h8a3.00328,3.00328,0,0,0,3-3V14A2.95276,2.95276,0,0,0,22.15234,11.91113ZM12,3.7207,14.16211,3h3.67578L20,3.7207V6H12ZM21,28a1.00067,1.00067,0,0,1-1,1H12a1.00067,1.00067,0,0,1-1-1V17h8V15H11V14a1.03949,1.03949,0,0,1,.32422-.73926L13.12109,11.293A2.98152,2.98152,0,0,0,14,9.17188V8h4V9.17188a2.95274,2.95274,0,0,0,.84766,2.08886L20.707,13.293A1.00683,1.00683,0,0,1,21,14Z"/></g></svg>