<svg id="Layer_1" data-name="Layer 1" xmlns="http://www.w3.org/2000/svg" viewBox="0 0 32 32"><path d="M23,24c0-4.40771-3.2959-10-7-10S9,19.59229,9,24c0,3.34045,2.95251,5.52734,6,5.92755V32h2V29.92755C20.04749,29.52734,23,27.34045,23,24Zm-8-1a1,1,0,1,1,1,1A1.001,1.001,0,0,1,15,23Zm2,4.91107V25.81573a3.00011,3.00011,0,1,0-2-.00006v2.0954c-2.07172-.35455-4-1.7818-4-3.91107,0-3.58887,2.75684-8,5-8s5,4.41113,5,8C21,26.12927,19.07172,27.55652,17,27.91107Z"/><path d="M27,14.22107V11C27,5.5249,23.59863,0,16,0S5,5.5249,5,11v3.22107C3.90259,14.699,3,15.97113,3,18c0,2.01318,1.67969,5,4,5V21c-.9082,0-2-1.84277-2-3,0-1.07568.35352-1.7417.75-1.93848a13.74011,13.74011,0,0,0,2.949,1.4477,14.08813,14.08813,0,0,1,1.07684-1.73786A13.39026,13.39026,0,0,1,7,14.48865V11A4.18733,4.18733,0,0,1,8.73242,7.81982a3.66075,3.66075,0,0,1,3.02442-.84961,7.908,7.908,0,0,1,1.02539.356,8.01989,8.01989,0,0,0,6.43554,0,7.94541,7.94541,0,0,1,1.02442-.356,3.65785,3.65785,0,0,1,3.02539.84961A4.18733,4.18733,0,0,1,25,11v3.46954a13.174,13.174,0,0,1-2.852,1.20215,13.9773,13.9773,0,0,1,1.10407,1.74744,12.77519,12.77519,0,0,0,2.99206-1.36C26.64355,16.25244,27,16.91943,27,18c0,1.15723-1.0918,3-2,3v2c2.32031,0,4-2.98682,4-5C29,15.97113,28.09741,14.699,27,14.22107ZM19.75684,5.02979a9.561,9.561,0,0,0-1.28125.43945,6.03875,6.03875,0,0,1-4.95118,0,9.52964,9.52964,0,0,0-1.28222-.43945A5.30818,5.30818,0,0,0,8.5426,5.5777C9.91449,3.51617,12.28668,2,16,2c3.714,0,6.08649,1.51672,7.45819,3.5788A5.31322,5.31322,0,0,0,19.75684,5.02979Z"/></svg>