<svg id="Layer_1" data-name="Layer 1" xmlns="http://www.w3.org/2000/svg" viewBox="0 0 32 32"><path d="M29,15H25.94928a9.95269,9.95269,0,0,0-2.211-5.32422L25.707,7.707A.99989.99989,0,0,0,24.293,6.293L22.32422,8.26172A9.95222,9.95222,0,0,0,17,6.05066V3a1,1,0,0,0-2,0V6.05066A9.95222,9.95222,0,0,0,9.67578,8.26172L7.707,6.293A.99989.99989,0,0,0,6.293,7.707L8.26172,9.67578A9.95269,9.95269,0,0,0,6.05072,15H3a1,1,0,0,0,0,2H6.05072a9.95238,9.95238,0,0,0,2.21112,5.3241L6.293,24.293A.99989.99989,0,1,0,7.707,25.707L9.6759,23.73816A9.95238,9.95238,0,0,0,15,25.94928V29a1,1,0,0,0,2,0V25.94928a9.95238,9.95238,0,0,0,5.3241-2.21112L24.293,25.707A.99989.99989,0,0,0,25.707,24.293L23.73816,22.3241A9.95238,9.95238,0,0,0,25.94928,17H29a1,1,0,0,0,0-2Zm-6.68835,5.89758L21.707,20.293A.99989.99989,0,0,0,20.293,21.707l.60461.60462a7.94765,7.94765,0,0,1-9.79516,0L11.707,21.707A.99989.99989,0,0,0,10.293,20.293l-.60462.60461a7.94765,7.94765,0,0,1,0-9.79516l.60462.60461A.99989.99989,0,0,0,11.707,10.293l-.60461-.60462a7.94765,7.94765,0,0,1,9.79516,0L20.293,10.293A.99989.99989,0,1,0,21.707,11.707l.60462-.60461a7.94765,7.94765,0,0,1,0,9.79516Z"/><circle cx="16" cy="20" r="2"/><circle cx="11.5" cy="15.5" r="1.5"/><circle cx="17" cy="13" r="1"/></svg>