<svg viewBox="0 0 32 32" xmlns="http://www.w3.org/2000/svg"><path d="m15.499 29.294a1.496 1.496 0 0 1 -1.05957-.44043l-6.85349-6.85357h-5.58594v-12h5.58594l6.85351-6.85352a1.49987 1.49987 0 0 1 2.56055 1.06052v23.586a1.50295 1.50295 0 0 1 -1.501 1.501zm-11.499-9.294h4.41406l6.58594 6.58594v-21.17188l-6.58594 6.58594h-4.41406z"/><path d="m20.501 23.79492-1.002-1.73047a7.00253 7.00253 0 0 0 0-12.12841l1.002-1.73145a9.0026 9.0026 0 0 1 0 15.59033z"/><path d="m23.03809 28.86523-1.002-1.73046a12.8588 12.8588 0 0 0 0-22.269l1.002-1.73144a14.85886 14.85886 0 0 1 0 25.731z"/></svg>