<svg viewBox="0 0 32 32" xmlns="http://www.w3.org/2000/svg"><path d="m14.19214 25.62006 1.80786 1.92094 1.80786-1.921a2.94555 2.94555 0 0 0 -3.61572 0z"/><path d="m16 21a6.96378 6.96378 0 0 1 4.55756 1.69843l1.369-1.45459a8.94857 8.94857 0 0 0 -11.853 0l1.36895 1.45459a6.96378 6.96378 0 0 1 4.55749-1.69843z"/><path d="m5.96741 16.881 1.36877 1.45441a12.92 12.92 0 0 1 17.32764 0l1.36877-1.45441a14.90794 14.90794 0 0 0 -20.06518 0z"/><path d="m16 9a18.90312 18.90312 0 0 1 12.77 4.97241l1.36871-1.45428a20.87227 20.87227 0 0 0 -28.27734 0l1.36863 1.45428a18.90312 18.90312 0 0 1 12.77-4.97241z"/></svg>